<svg width="133" height="256" viewBox="0 0 133 256" fill="none" xmlns="http://www.w3.org/2000/svg">
<g clip-path="url(#clip0_233_285)">
<circle cx="0.85162" cy="97.0284" r="11.3082" fill="white" fill-opacity="0.05"/>
<circle cx="-0.13422" cy="39.8814" r="11.3082" fill="white" fill-opacity="0.05"/>
<circle cx="17.4093" cy="125.601" r="7.2932" fill="white" fill-opacity="0.05"/>
<circle cx="2.82286" cy="199.277" r="7.2932" fill="white" fill-opacity="0.05"/>
<circle cx="0.851673" cy="150.16" r="7.2932" fill="white" fill-opacity="0.05"/>
<circle cx="19.4532" cy="174.719" r="7.2932" fill="white" fill-opacity="0.05"/>
<circle cx="4.86681" cy="248.395" r="7.2932" fill="white" fill-opacity="0.05"/>
<circle cx="50.525" cy="125.601" r="7.2932" fill="white" fill-opacity="0.05"/>
<circle cx="35.9386" cy="199.277" r="7.2932" fill="white" fill-opacity="0.05"/>
<circle cx="33.9669" cy="150.16" r="7.2932" fill="white" fill-opacity="0.05"/>
<circle cx="19.3805" cy="223.836" r="7.2932" fill="white" fill-opacity="0.05"/>
<circle cx="52.568" cy="174.719" r="7.2932" fill="white" fill-opacity="0.05"/>
<circle cx="37.9816" cy="248.395" r="7.2932" fill="white" fill-opacity="0.05"/>
<circle cx="83.6402" cy="125.601" r="7.2932" fill="white" fill-opacity="0.05"/>
<circle cx="69.0538" cy="199.277" r="7.2932" fill="white" fill-opacity="0.05"/>
<circle cx="67.0831" cy="150.16" r="7.2932" fill="white" fill-opacity="0.05"/>
<circle cx="52.4967" cy="223.836" r="7.2932" fill="white" fill-opacity="0.05"/>
<circle cx="85.6842" cy="174.719" r="7.2932" fill="white" fill-opacity="0.05"/>
<circle cx="71.0978" cy="248.395" r="7.2932" fill="white" fill-opacity="0.05"/>
<circle cx="116.756" cy="125.601" r="7.2932" fill="white" fill-opacity="0.05"/>
<circle cx="102.17" cy="199.277" r="7.2932" fill="white" fill-opacity="0.05"/>
<circle cx="100.198" cy="150.16" r="7.2932" fill="white" fill-opacity="0.05"/>
<circle cx="85.6114" cy="223.836" r="7.2932" fill="white" fill-opacity="0.05"/>
<circle cx="118.799" cy="174.719" r="7.2932" fill="white" fill-opacity="0.05"/>
<circle cx="104.213" cy="248.395" r="7.2932" fill="white" fill-opacity="0.05"/>
<circle cx="135.285" cy="199.277" r="7.2932" fill="white" fill-opacity="0.05"/>
<circle cx="133.314" cy="150.16" r="7.2932" fill="white" fill-opacity="0.05"/>
<circle cx="118.727" cy="223.836" r="7.2932" fill="white" fill-opacity="0.05"/>
<circle cx="137.328" cy="248.395" r="7.2932" fill="white" fill-opacity="0.05"/>
<circle cx="17.4092" cy="68.4547" r="11.3082" fill="white" fill-opacity="0.05"/>
<circle cx="16.4234" cy="11.3082" r="11.3082" fill="white" fill-opacity="0.05"/>
<circle cx="33.9669" cy="97.0284" r="11.3082" fill="white" fill-opacity="0.05"/>
<circle cx="32.981" cy="39.8814" r="11.3082" fill="white" fill-opacity="0.05"/>
<circle cx="50.525" cy="68.4547" r="11.3082" fill="white" fill-opacity="0.05"/>
<circle cx="49.5391" cy="11.3082" r="11.3082" fill="white" fill-opacity="0.05"/>
<circle cx="67.0831" cy="97.0284" r="11.3082" fill="white" fill-opacity="0.05"/>
<circle cx="66.0972" cy="39.8814" r="11.3082" fill="white" fill-opacity="0.05"/>
<circle cx="83.6407" cy="68.4547" r="11.3082" fill="white" fill-opacity="0.05"/>
<circle cx="82.6548" cy="11.3082" r="11.3082" fill="white" fill-opacity="0.05"/>
<circle cx="100.198" cy="97.0284" r="11.3082" fill="white" fill-opacity="0.05"/>
<circle cx="99.212" cy="39.8814" r="11.3082" fill="white" fill-opacity="0.05"/>
<circle cx="116.756" cy="68.4547" r="11.3082" fill="white" fill-opacity="0.05"/>
<circle cx="115.77" cy="11.3082" r="11.3082" fill="white" fill-opacity="0.05"/>
<circle cx="133.314" cy="97.0284" r="11.3082" fill="white" fill-opacity="0.05"/>
<circle cx="132.328" cy="39.8814" r="11.3082" fill="white" fill-opacity="0.05"/>
</g>
<defs>
<clipPath id="clip0_233_285">
<rect width="133" height="256" fill="white"/>
</clipPath>
</defs>
</svg>
