<svg width="950" height="256" viewBox="0 0 950 256" fill="none" xmlns="http://www.w3.org/2000/svg">
<circle cx="476.969" cy="68.4547" r="11.3082" fill="black" fill-opacity="0.05"/>
<circle cx="12.294" cy="68.4547" r="11.3082" fill="black" fill-opacity="0.05"/>
<circle cx="475.983" cy="11.3082" r="11.3082" fill="black" fill-opacity="0.05"/>
<circle cx="11.3082" cy="11.3082" r="11.3082" fill="black" fill-opacity="0.05"/>
<circle cx="493.526" cy="97.0284" r="11.3082" fill="black" fill-opacity="0.05"/>
<circle cx="28.8516" cy="97.0284" r="11.3082" fill="black" fill-opacity="0.05"/>
<circle cx="492.541" cy="39.8814" r="11.3082" fill="black" fill-opacity="0.05"/>
<circle cx="27.8658" cy="39.8814" r="11.3082" fill="black" fill-opacity="0.05"/>
<circle cx="510.084" cy="125.601" r="7.2932" fill="black" fill-opacity="0.05"/>
<circle cx="45.4093" cy="125.601" r="7.2932" fill="black" fill-opacity="0.05"/>
<circle cx="495.498" cy="199.277" r="7.2932" fill="black" fill-opacity="0.05"/>
<circle cx="30.8229" cy="199.277" r="7.2932" fill="black" fill-opacity="0.05"/>
<circle cx="493.526" cy="150.16" r="7.2932" fill="black" fill-opacity="0.05"/>
<circle cx="28.8517" cy="150.16" r="7.2932" fill="black" fill-opacity="0.05"/>
<circle cx="478.94" cy="223.836" r="7.2932" fill="black" fill-opacity="0.05"/>
<circle cx="14.2652" cy="223.836" r="7.2932" fill="black" fill-opacity="0.05"/>
<circle cx="512.128" cy="174.719" r="7.2932" fill="black" fill-opacity="0.05"/>
<circle cx="47.4532" cy="174.719" r="7.2932" fill="black" fill-opacity="0.05"/>
<circle cx="497.542" cy="248.395" r="7.2932" fill="black" fill-opacity="0.05"/>
<circle cx="32.8668" cy="248.395" r="7.2932" fill="black" fill-opacity="0.05"/>
<circle cx="543.2" cy="125.601" r="7.2932" fill="black" fill-opacity="0.05"/>
<circle cx="78.525" cy="125.601" r="7.2932" fill="black" fill-opacity="0.05"/>
<circle cx="528.613" cy="199.277" r="7.2932" fill="black" fill-opacity="0.05"/>
<circle cx="63.9386" cy="199.277" r="7.2932" fill="black" fill-opacity="0.05"/>
<circle cx="526.642" cy="150.16" r="7.2932" fill="black" fill-opacity="0.05"/>
<circle cx="61.9669" cy="150.16" r="7.2932" fill="black" fill-opacity="0.05"/>
<circle cx="512.055" cy="223.836" r="7.2932" fill="black" fill-opacity="0.05"/>
<circle cx="47.3805" cy="223.836" r="7.2932" fill="black" fill-opacity="0.05"/>
<circle cx="545.243" cy="174.719" r="7.2932" fill="black" fill-opacity="0.05"/>
<circle cx="80.568" cy="174.719" r="7.2932" fill="black" fill-opacity="0.05"/>
<circle cx="530.656" cy="248.395" r="7.2932" fill="black" fill-opacity="0.05"/>
<circle cx="65.9816" cy="248.395" r="7.2932" fill="black" fill-opacity="0.05"/>
<circle cx="576.315" cy="125.601" r="7.2932" fill="black" fill-opacity="0.05"/>
<circle cx="111.64" cy="125.601" r="7.2932" fill="black" fill-opacity="0.05"/>
<circle cx="561.729" cy="199.277" r="7.2932" fill="black" fill-opacity="0.05"/>
<circle cx="97.0538" cy="199.277" r="7.2932" fill="black" fill-opacity="0.05"/>
<circle cx="559.758" cy="150.16" r="7.2932" fill="black" fill-opacity="0.05"/>
<circle cx="95.0831" cy="150.16" r="7.2932" fill="black" fill-opacity="0.05"/>
<circle cx="545.172" cy="223.836" r="7.2932" fill="black" fill-opacity="0.05"/>
<circle cx="80.4967" cy="223.836" r="7.2932" fill="black" fill-opacity="0.05"/>
<circle cx="578.359" cy="174.719" r="7.2932" fill="black" fill-opacity="0.05"/>
<circle cx="113.684" cy="174.719" r="7.2932" fill="black" fill-opacity="0.05"/>
<circle cx="563.773" cy="248.395" r="7.2932" fill="black" fill-opacity="0.05"/>
<circle cx="99.0978" cy="248.395" r="7.2932" fill="black" fill-opacity="0.05"/>
<circle cx="609.431" cy="125.601" r="7.2932" fill="black" fill-opacity="0.05"/>
<circle cx="144.756" cy="125.601" r="7.2932" fill="black" fill-opacity="0.05"/>
<circle cx="594.844" cy="199.277" r="7.2932" fill="black" fill-opacity="0.05"/>
<circle cx="130.17" cy="199.277" r="7.2932" fill="black" fill-opacity="0.05"/>
<circle cx="592.873" cy="150.16" r="7.2932" fill="black" fill-opacity="0.05"/>
<circle cx="128.198" cy="150.16" r="7.2932" fill="black" fill-opacity="0.05"/>
<circle cx="578.286" cy="223.836" r="7.2932" fill="black" fill-opacity="0.05"/>
<circle cx="113.611" cy="223.836" r="7.2932" fill="black" fill-opacity="0.05"/>
<circle cx="611.474" cy="174.719" r="7.2932" fill="black" fill-opacity="0.05"/>
<circle cx="146.799" cy="174.719" r="7.2932" fill="black" fill-opacity="0.05"/>
<circle cx="596.888" cy="248.395" r="7.2932" fill="black" fill-opacity="0.05"/>
<circle cx="132.213" cy="248.395" r="7.2932" fill="black" fill-opacity="0.05"/>
<circle cx="642.546" cy="125.601" r="7.2932" fill="black" fill-opacity="0.05"/>
<circle cx="177.871" cy="125.601" r="7.2932" fill="black" fill-opacity="0.05"/>
<circle cx="627.96" cy="199.277" r="7.2932" fill="black" fill-opacity="0.05"/>
<circle cx="163.285" cy="199.277" r="7.2932" fill="black" fill-opacity="0.05"/>
<circle cx="625.988" cy="150.16" r="7.2932" fill="black" fill-opacity="0.05"/>
<circle cx="161.314" cy="150.16" r="7.2932" fill="black" fill-opacity="0.05"/>
<circle cx="611.402" cy="223.836" r="7.2932" fill="black" fill-opacity="0.05"/>
<circle cx="146.727" cy="223.836" r="7.2932" fill="black" fill-opacity="0.05"/>
<circle cx="644.589" cy="174.719" r="7.2932" fill="black" fill-opacity="0.05"/>
<circle cx="179.915" cy="174.719" r="7.2932" fill="black" fill-opacity="0.05"/>
<circle cx="630.003" cy="248.395" r="7.2932" fill="black" fill-opacity="0.05"/>
<circle cx="165.328" cy="248.395" r="7.2932" fill="black" fill-opacity="0.05"/>
<circle cx="675.662" cy="125.601" r="7.2932" fill="black" fill-opacity="0.05"/>
<circle cx="210.987" cy="125.601" r="7.2932" fill="black" fill-opacity="0.05"/>
<circle cx="661.075" cy="199.277" r="7.2932" fill="black" fill-opacity="0.05"/>
<circle cx="196.4" cy="199.277" r="7.2932" fill="black" fill-opacity="0.05"/>
<circle cx="659.104" cy="150.16" r="7.2932" fill="black" fill-opacity="0.05"/>
<circle cx="194.429" cy="150.16" r="7.2932" fill="black" fill-opacity="0.05"/>
<circle cx="644.518" cy="223.836" r="7.2932" fill="black" fill-opacity="0.05"/>
<circle cx="179.843" cy="223.836" r="7.2932" fill="black" fill-opacity="0.05"/>
<circle cx="677.705" cy="174.719" r="7.2932" fill="black" fill-opacity="0.05"/>
<circle cx="213.03" cy="174.719" r="7.2932" fill="black" fill-opacity="0.05"/>
<circle cx="663.119" cy="248.395" r="7.2932" fill="black" fill-opacity="0.05"/>
<circle cx="198.444" cy="248.395" r="7.2932" fill="black" fill-opacity="0.05"/>
<circle cx="708.777" cy="125.601" r="7.2932" fill="black" fill-opacity="0.05"/>
<circle cx="244.102" cy="125.601" r="7.2932" fill="black" fill-opacity="0.05"/>
<circle cx="694.191" cy="199.277" r="7.2932" fill="black" fill-opacity="0.05"/>
<circle cx="229.516" cy="199.277" r="7.2932" fill="black" fill-opacity="0.05"/>
<circle cx="692.219" cy="150.16" r="7.2932" fill="black" fill-opacity="0.05"/>
<circle cx="227.545" cy="150.16" r="7.2932" fill="black" fill-opacity="0.05"/>
<circle cx="677.633" cy="223.836" r="7.2932" fill="black" fill-opacity="0.05"/>
<circle cx="212.958" cy="223.836" r="7.2932" fill="black" fill-opacity="0.05"/>
<circle cx="710.821" cy="174.719" r="7.2932" fill="black" fill-opacity="0.05"/>
<circle cx="246.146" cy="174.719" r="7.2932" fill="black" fill-opacity="0.05"/>
<circle cx="696.234" cy="248.395" r="7.2932" fill="black" fill-opacity="0.05"/>
<circle cx="231.56" cy="248.395" r="7.2932" fill="black" fill-opacity="0.05"/>
<circle cx="741.892" cy="125.601" r="7.2932" fill="black" fill-opacity="0.05"/>
<circle cx="277.217" cy="125.601" r="7.2932" fill="black" fill-opacity="0.05"/>
<circle cx="727.306" cy="199.277" r="7.2932" fill="black" fill-opacity="0.05"/>
<circle cx="262.631" cy="199.277" r="7.2932" fill="black" fill-opacity="0.05"/>
<circle cx="725.335" cy="150.16" r="7.2932" fill="black" fill-opacity="0.05"/>
<circle cx="260.66" cy="150.16" r="7.2932" fill="black" fill-opacity="0.05"/>
<circle cx="710.748" cy="223.836" r="7.2932" fill="black" fill-opacity="0.05"/>
<circle cx="246.073" cy="223.836" r="7.2932" fill="black" fill-opacity="0.05"/>
<circle cx="743.936" cy="174.719" r="7.2932" fill="black" fill-opacity="0.05"/>
<circle cx="279.261" cy="174.719" r="7.2932" fill="black" fill-opacity="0.05"/>
<circle cx="729.349" cy="248.395" r="7.2932" fill="black" fill-opacity="0.05"/>
<circle cx="264.674" cy="248.395" r="7.2932" fill="black" fill-opacity="0.05"/>
<circle cx="775.008" cy="125.601" r="7.2932" fill="black" fill-opacity="0.05"/>
<circle cx="310.334" cy="125.601" r="7.2932" fill="black" fill-opacity="0.05"/>
<circle cx="760.422" cy="199.277" r="7.2932" fill="black" fill-opacity="0.05"/>
<circle cx="295.747" cy="199.277" r="7.2932" fill="black" fill-opacity="0.05"/>
<circle cx="758.45" cy="150.16" r="7.2932" fill="black" fill-opacity="0.05"/>
<circle cx="293.776" cy="150.16" r="7.2932" fill="black" fill-opacity="0.05"/>
<circle cx="743.864" cy="223.836" r="7.2932" fill="black" fill-opacity="0.05"/>
<circle cx="279.189" cy="223.836" r="7.2932" fill="black" fill-opacity="0.05"/>
<circle cx="777.052" cy="174.719" r="7.2932" fill="black" fill-opacity="0.05"/>
<circle cx="312.377" cy="174.719" r="7.2932" fill="black" fill-opacity="0.05"/>
<circle cx="762.465" cy="248.395" r="7.2932" fill="black" fill-opacity="0.05"/>
<circle cx="297.791" cy="248.395" r="7.2932" fill="black" fill-opacity="0.05"/>
<circle cx="808.124" cy="125.601" r="7.2932" fill="black" fill-opacity="0.05"/>
<circle cx="343.449" cy="125.601" r="7.2932" fill="black" fill-opacity="0.05"/>
<circle cx="793.537" cy="199.277" r="7.2932" fill="black" fill-opacity="0.05"/>
<circle cx="328.862" cy="199.277" r="7.2932" fill="black" fill-opacity="0.05"/>
<circle cx="791.566" cy="150.16" r="7.2932" fill="black" fill-opacity="0.05"/>
<circle cx="326.891" cy="150.16" r="7.2932" fill="black" fill-opacity="0.05"/>
<circle cx="776.979" cy="223.836" r="7.2932" fill="black" fill-opacity="0.05"/>
<circle cx="312.304" cy="223.836" r="7.2932" fill="black" fill-opacity="0.05"/>
<circle cx="810.167" cy="174.719" r="7.2932" fill="black" fill-opacity="0.05"/>
<circle cx="345.492" cy="174.719" r="7.2932" fill="black" fill-opacity="0.05"/>
<circle cx="795.581" cy="248.395" r="7.2932" fill="black" fill-opacity="0.05"/>
<circle cx="330.906" cy="248.395" r="7.2932" fill="black" fill-opacity="0.05"/>
<circle cx="841.239" cy="125.601" r="7.2932" fill="black" fill-opacity="0.05"/>
<circle cx="376.564" cy="125.601" r="7.2932" fill="black" fill-opacity="0.05"/>
<circle cx="826.652" cy="199.277" r="7.2932" fill="black" fill-opacity="0.05"/>
<circle cx="361.978" cy="199.277" r="7.2932" fill="black" fill-opacity="0.05"/>
<circle cx="824.681" cy="150.16" r="7.2932" fill="black" fill-opacity="0.05"/>
<circle cx="360.006" cy="150.16" r="7.2932" fill="black" fill-opacity="0.05"/>
<circle cx="810.095" cy="223.836" r="7.2932" fill="black" fill-opacity="0.05"/>
<circle cx="345.42" cy="223.836" r="7.2932" fill="black" fill-opacity="0.05"/>
<circle cx="843.283" cy="174.719" r="7.2932" fill="black" fill-opacity="0.05"/>
<circle cx="378.608" cy="174.719" r="7.2932" fill="black" fill-opacity="0.05"/>
<circle cx="828.696" cy="248.395" r="7.2932" fill="black" fill-opacity="0.05"/>
<circle cx="364.022" cy="248.395" r="7.2932" fill="black" fill-opacity="0.05"/>
<circle cx="874.354" cy="125.601" r="7.2932" fill="black" fill-opacity="0.05"/>
<circle cx="409.679" cy="125.601" r="7.2932" fill="black" fill-opacity="0.05"/>
<circle cx="859.768" cy="199.277" r="7.2932" fill="black" fill-opacity="0.05"/>
<circle cx="395.093" cy="199.277" r="7.2932" fill="black" fill-opacity="0.05"/>
<circle cx="857.797" cy="150.16" r="7.2932" fill="black" fill-opacity="0.05"/>
<circle cx="393.122" cy="150.16" r="7.2932" fill="black" fill-opacity="0.05"/>
<circle cx="843.21" cy="223.836" r="7.2932" fill="black" fill-opacity="0.05"/>
<circle cx="378.535" cy="223.836" r="7.2932" fill="black" fill-opacity="0.05"/>
<circle cx="876.398" cy="174.719" r="7.2932" fill="black" fill-opacity="0.05"/>
<circle cx="411.723" cy="174.719" r="7.2932" fill="black" fill-opacity="0.05"/>
<circle cx="861.811" cy="248.395" r="7.2932" fill="black" fill-opacity="0.05"/>
<circle cx="397.136" cy="248.395" r="7.2932" fill="black" fill-opacity="0.05"/>
<circle cx="907.47" cy="125.601" r="7.2932" fill="black" fill-opacity="0.05"/>
<circle cx="442.796" cy="125.601" r="7.2932" fill="black" fill-opacity="0.05"/>
<circle cx="892.884" cy="199.277" r="7.2932" fill="black" fill-opacity="0.05"/>
<circle cx="428.209" cy="199.277" r="7.2932" fill="black" fill-opacity="0.05"/>
<circle cx="890.913" cy="150.16" r="7.2932" fill="black" fill-opacity="0.05"/>
<circle cx="426.238" cy="150.16" r="7.2932" fill="black" fill-opacity="0.05"/>
<circle cx="876.326" cy="223.836" r="7.2932" fill="black" fill-opacity="0.05"/>
<circle cx="411.651" cy="223.836" r="7.2932" fill="black" fill-opacity="0.05"/>
<circle cx="909.514" cy="174.719" r="7.2932" fill="black" fill-opacity="0.05"/>
<circle cx="444.839" cy="174.719" r="7.2932" fill="black" fill-opacity="0.05"/>
<circle cx="894.927" cy="248.395" r="7.2932" fill="black" fill-opacity="0.05"/>
<circle cx="430.253" cy="248.395" r="7.2932" fill="black" fill-opacity="0.05"/>
<circle cx="940.586" cy="125.601" r="7.2932" fill="black" fill-opacity="0.05"/>
<circle cx="475.911" cy="125.601" r="7.2932" fill="black" fill-opacity="0.05"/>
<circle cx="925.999" cy="199.277" r="7.2932" fill="black" fill-opacity="0.05"/>
<circle cx="461.324" cy="199.277" r="7.2932" fill="black" fill-opacity="0.05"/>
<circle cx="924.027" cy="150.16" r="7.2932" fill="black" fill-opacity="0.05"/>
<circle cx="459.353" cy="150.16" r="7.2932" fill="black" fill-opacity="0.05"/>
<circle cx="909.441" cy="223.836" r="7.2932" fill="black" fill-opacity="0.05"/>
<circle cx="444.766" cy="223.836" r="7.2932" fill="black" fill-opacity="0.05"/>
<circle cx="942.629" cy="174.719" r="7.2932" fill="black" fill-opacity="0.05"/>
<circle cx="477.954" cy="174.719" r="7.2932" fill="black" fill-opacity="0.05"/>
<circle cx="928.043" cy="248.395" r="7.2932" fill="black" fill-opacity="0.05"/>
<circle cx="463.368" cy="248.395" r="7.2932" fill="black" fill-opacity="0.05"/>
<circle cx="510.084" cy="68.4547" r="11.3082" fill="black" fill-opacity="0.05"/>
<circle cx="45.4092" cy="68.4547" r="11.3082" fill="black" fill-opacity="0.05"/>
<circle cx="509.098" cy="11.3082" r="11.3082" fill="black" fill-opacity="0.05"/>
<circle cx="44.4234" cy="11.3082" r="11.3082" fill="black" fill-opacity="0.05"/>
<circle cx="526.642" cy="97.0284" r="11.3082" fill="black" fill-opacity="0.05"/>
<circle cx="61.9669" cy="97.0284" r="11.3082" fill="black" fill-opacity="0.05"/>
<circle cx="525.656" cy="39.8814" r="11.3082" fill="black" fill-opacity="0.05"/>
<circle cx="60.981" cy="39.8814" r="11.3082" fill="black" fill-opacity="0.05"/>
<circle cx="543.2" cy="68.4547" r="11.3082" fill="black" fill-opacity="0.05"/>
<circle cx="78.525" cy="68.4547" r="11.3082" fill="black" fill-opacity="0.05"/>
<circle cx="542.214" cy="11.3082" r="11.3082" fill="black" fill-opacity="0.05"/>
<circle cx="77.5391" cy="11.3082" r="11.3082" fill="black" fill-opacity="0.05"/>
<circle cx="559.758" cy="97.0284" r="11.3082" fill="black" fill-opacity="0.05"/>
<circle cx="95.0831" cy="97.0284" r="11.3082" fill="black" fill-opacity="0.05"/>
<circle cx="558.772" cy="39.8814" r="11.3082" fill="black" fill-opacity="0.05"/>
<circle cx="94.0972" cy="39.8814" r="11.3082" fill="black" fill-opacity="0.05"/>
<circle cx="576.315" cy="68.4547" r="11.3082" fill="black" fill-opacity="0.05"/>
<circle cx="111.641" cy="68.4547" r="11.3082" fill="black" fill-opacity="0.05"/>
<circle cx="575.33" cy="11.3082" r="11.3082" fill="black" fill-opacity="0.05"/>
<circle cx="110.655" cy="11.3082" r="11.3082" fill="black" fill-opacity="0.05"/>
<circle cx="592.873" cy="97.0284" r="11.3082" fill="black" fill-opacity="0.05"/>
<circle cx="128.198" cy="97.0284" r="11.3082" fill="black" fill-opacity="0.05"/>
<circle cx="591.887" cy="39.8814" r="11.3082" fill="black" fill-opacity="0.05"/>
<circle cx="127.212" cy="39.8814" r="11.3082" fill="black" fill-opacity="0.05"/>
<circle cx="609.431" cy="68.4547" r="11.3082" fill="black" fill-opacity="0.05"/>
<circle cx="144.756" cy="68.4547" r="11.3082" fill="black" fill-opacity="0.05"/>
<circle cx="608.445" cy="11.3082" r="11.3082" fill="black" fill-opacity="0.05"/>
<circle cx="143.77" cy="11.3082" r="11.3082" fill="black" fill-opacity="0.05"/>
<circle cx="625.988" cy="97.0284" r="11.3082" fill="black" fill-opacity="0.05"/>
<circle cx="161.314" cy="97.0284" r="11.3082" fill="black" fill-opacity="0.05"/>
<circle cx="625.003" cy="39.8814" r="11.3082" fill="black" fill-opacity="0.05"/>
<circle cx="160.328" cy="39.8814" r="11.3082" fill="black" fill-opacity="0.05"/>
<circle cx="642.546" cy="68.4547" r="11.3082" fill="black" fill-opacity="0.05"/>
<circle cx="177.871" cy="68.4547" r="11.3082" fill="black" fill-opacity="0.05"/>
<circle cx="641.56" cy="11.3082" r="11.3082" fill="black" fill-opacity="0.05"/>
<circle cx="176.885" cy="11.3082" r="11.3082" fill="black" fill-opacity="0.05"/>
<circle cx="659.104" cy="97.0284" r="11.3082" fill="black" fill-opacity="0.05"/>
<circle cx="194.429" cy="97.0284" r="11.3082" fill="black" fill-opacity="0.05"/>
<circle cx="658.118" cy="39.8814" r="11.3082" fill="black" fill-opacity="0.05"/>
<circle cx="193.443" cy="39.8814" r="11.3082" fill="black" fill-opacity="0.05"/>
<circle cx="675.662" cy="68.4547" r="11.3082" fill="black" fill-opacity="0.05"/>
<circle cx="210.987" cy="68.4547" r="11.3082" fill="black" fill-opacity="0.05"/>
<circle cx="674.676" cy="11.3082" r="11.3082" fill="black" fill-opacity="0.05"/>
<circle cx="210.001" cy="11.3082" r="11.3082" fill="black" fill-opacity="0.05"/>
<circle cx="692.22" cy="97.0284" r="11.3082" fill="black" fill-opacity="0.05"/>
<circle cx="227.545" cy="97.0284" r="11.3082" fill="black" fill-opacity="0.05"/>
<circle cx="691.234" cy="39.8814" r="11.3082" fill="black" fill-opacity="0.05"/>
<circle cx="226.559" cy="39.8814" r="11.3082" fill="black" fill-opacity="0.05"/>
<circle cx="708.777" cy="68.4547" r="11.3082" fill="black" fill-opacity="0.05"/>
<circle cx="244.103" cy="68.4547" r="11.3082" fill="black" fill-opacity="0.05"/>
<circle cx="707.792" cy="11.3082" r="11.3082" fill="black" fill-opacity="0.05"/>
<circle cx="243.117" cy="11.3082" r="11.3082" fill="black" fill-opacity="0.05"/>
<circle cx="725.335" cy="97.0284" r="11.3082" fill="black" fill-opacity="0.05"/>
<circle cx="260.66" cy="97.0284" r="11.3082" fill="black" fill-opacity="0.05"/>
<circle cx="724.349" cy="39.8814" r="11.3082" fill="black" fill-opacity="0.05"/>
<circle cx="259.674" cy="39.8814" r="11.3082" fill="black" fill-opacity="0.05"/>
<circle cx="741.893" cy="68.4547" r="11.3082" fill="black" fill-opacity="0.05"/>
<circle cx="277.218" cy="68.4547" r="11.3082" fill="black" fill-opacity="0.05"/>
<circle cx="740.907" cy="11.3082" r="11.3082" fill="black" fill-opacity="0.05"/>
<circle cx="276.232" cy="11.3082" r="11.3082" fill="black" fill-opacity="0.05"/>
<circle cx="758.45" cy="97.0284" r="11.3082" fill="black" fill-opacity="0.05"/>
<circle cx="293.775" cy="97.0284" r="11.3082" fill="black" fill-opacity="0.05"/>
<circle cx="757.464" cy="39.8814" r="11.3082" fill="black" fill-opacity="0.05"/>
<circle cx="292.79" cy="39.8814" r="11.3082" fill="black" fill-opacity="0.05"/>
<circle cx="775.008" cy="68.4547" r="11.3082" fill="black" fill-opacity="0.05"/>
<circle cx="310.333" cy="68.4547" r="11.3082" fill="black" fill-opacity="0.05"/>
<circle cx="774.022" cy="11.3082" r="11.3082" fill="black" fill-opacity="0.05"/>
<circle cx="309.348" cy="11.3082" r="11.3082" fill="black" fill-opacity="0.05"/>
<circle cx="791.566" cy="97.0284" r="11.3082" fill="black" fill-opacity="0.05"/>
<circle cx="326.891" cy="97.0284" r="11.3082" fill="black" fill-opacity="0.05"/>
<circle cx="790.58" cy="39.8814" r="11.3082" fill="black" fill-opacity="0.05"/>
<circle cx="325.905" cy="39.8814" r="11.3082" fill="black" fill-opacity="0.05"/>
<circle cx="808.123" cy="68.4547" r="11.3082" fill="black" fill-opacity="0.05"/>
<circle cx="343.449" cy="68.4547" r="11.3082" fill="black" fill-opacity="0.05"/>
<circle cx="807.138" cy="11.3082" r="11.3082" fill="black" fill-opacity="0.05"/>
<circle cx="342.463" cy="11.3082" r="11.3082" fill="black" fill-opacity="0.05"/>
<circle cx="824.682" cy="97.0284" r="11.3082" fill="black" fill-opacity="0.05"/>
<circle cx="360.007" cy="97.0284" r="11.3082" fill="black" fill-opacity="0.05"/>
<circle cx="823.696" cy="39.8814" r="11.3082" fill="black" fill-opacity="0.05"/>
<circle cx="359.021" cy="39.8814" r="11.3082" fill="black" fill-opacity="0.05"/>
<circle cx="841.239" cy="68.4547" r="11.3082" fill="black" fill-opacity="0.05"/>
<circle cx="376.564" cy="68.4547" r="11.3082" fill="black" fill-opacity="0.05"/>
<circle cx="840.253" cy="11.3082" r="11.3082" fill="black" fill-opacity="0.05"/>
<circle cx="375.578" cy="11.3082" r="11.3082" fill="black" fill-opacity="0.05"/>
<circle cx="857.796" cy="97.0284" r="11.3082" fill="black" fill-opacity="0.05"/>
<circle cx="393.122" cy="97.0284" r="11.3082" fill="black" fill-opacity="0.05"/>
<circle cx="856.81" cy="39.8814" r="11.3082" fill="black" fill-opacity="0.05"/>
<circle cx="392.136" cy="39.8814" r="11.3082" fill="black" fill-opacity="0.05"/>
<circle cx="874.354" cy="68.4547" r="11.3082" fill="black" fill-opacity="0.05"/>
<circle cx="409.68" cy="68.4547" r="11.3082" fill="black" fill-opacity="0.05"/>
<circle cx="873.369" cy="11.3082" r="11.3082" fill="black" fill-opacity="0.05"/>
<circle cx="408.694" cy="11.3082" r="11.3082" fill="black" fill-opacity="0.05"/>
<circle cx="890.913" cy="97.0284" r="11.3082" fill="black" fill-opacity="0.05"/>
<circle cx="426.238" cy="97.0284" r="11.3082" fill="black" fill-opacity="0.05"/>
<circle cx="889.927" cy="39.8814" r="11.3082" fill="black" fill-opacity="0.05"/>
<circle cx="425.252" cy="39.8814" r="11.3082" fill="black" fill-opacity="0.05"/>
<circle cx="907.47" cy="68.4547" r="11.3082" fill="black" fill-opacity="0.05"/>
<circle cx="442.795" cy="68.4547" r="11.3082" fill="black" fill-opacity="0.05"/>
<circle cx="906.484" cy="11.3082" r="11.3082" fill="black" fill-opacity="0.05"/>
<circle cx="441.81" cy="11.3082" r="11.3082" fill="black" fill-opacity="0.05"/>
<circle cx="924.028" cy="97.0284" r="11.3082" fill="black" fill-opacity="0.05"/>
<circle cx="459.353" cy="97.0284" r="11.3082" fill="black" fill-opacity="0.05"/>
<circle cx="923.042" cy="39.8814" r="11.3082" fill="black" fill-opacity="0.05"/>
<circle cx="458.367" cy="39.8814" r="11.3082" fill="black" fill-opacity="0.05"/>
</svg>
