<svg width="246" height="351" viewBox="0 0 246 351" fill="none" xmlns="http://www.w3.org/2000/svg">
<mask id="mask0_2894_1184" style="mask-type:alpha" maskUnits="userSpaceOnUse" x="0" y="0" width="246" height="351">
<path d="M122.798 0C194.642 0 245.596 62.1634 245.596 120.76C245.596 179.356 209.928 219.1 199.737 232.348C189.547 245.596 148.717 288.705 136.555 334.764C134.095 344.08 130.951 350.05 122.798 350.05C114.645 350.05 111.501 344.08 109.041 334.764C96.8786 288.705 56.0491 245.596 45.8584 232.348C35.6676 219.1 0 179.356 0 120.76C0 62.1634 50.9539 0 122.798 0ZM122.798 74.6807C96.5007 74.6807 75.1826 95.9987 75.1826 122.296C75.1829 148.593 96.5008 169.911 122.798 169.911C149.095 169.911 170.413 148.593 170.413 122.296C170.413 95.9987 149.095 74.6807 122.798 74.6807Z" fill="black"/>
</mask>
<g mask="url(#mask0_2894_1184)">
<rect x="20.9336" y="32.0825" width="146.775" height="109.063" transform="rotate(-49.9595 20.9336 32.0825)" fill="#2B85EB"/>
<rect x="-73.4424" y="142.535" width="146.775" height="109.063" transform="rotate(-49.9595 -73.4424 142.535)" fill="#ED5748"/>
<rect x="89.7578" y="88.2046" width="135.72" height="105.078" transform="rotate(-49.9595 89.7578 88.2046)" fill="#5595F6"/>
<rect x="-11.5283" y="208.381" width="157.167" height="105.309" transform="rotate(-49.9595 -11.5283 208.381)" fill="#FBC70E"/>
<rect x="35.6914" y="292.597" width="306.675" height="109.063" transform="rotate(-49.9595 35.6914 292.597)" fill="#49B565"/>
</g>
</svg>
