<svg width="118" height="111" viewBox="0 0 118 111" fill="none" xmlns="http://www.w3.org/2000/svg">
<g clip-path="url(#clip0_2829_4747)">
<path d="M110.279 7.32616L3.49558 52.9684C-0.8626 54.8312 -0.424901 61.1469 4.14857 62.3908L28.8736 69.1151C30.2725 69.4956 31.7676 69.2501 32.9715 68.4425L82.9982 34.8782C83.8859 34.2826 85.0644 34.3646 85.861 35.0774C86.8789 35.9882 86.9031 37.5738 85.9134 38.5153L50.3228 72.3697C47.9893 74.5895 48.3323 78.4042 51.0245 80.172L95.8706 109.619C98.9278 111.627 103.035 109.78 103.563 106.161L117.191 12.6449C117.755 8.78081 113.869 5.79142 110.279 7.32616Z" fill="#0B0B0B" fill-opacity="0.3"/>
<path d="M110.279 3.45336L3.49558 49.0956C-0.8626 50.9584 -0.424901 57.2741 4.14857 58.518L28.8736 65.2423C30.2725 65.6228 31.7676 65.3773 32.9715 64.5696L82.9982 31.0054C83.8859 30.4098 85.0644 30.4918 85.861 31.2046C86.8789 32.1154 86.9031 33.701 85.9134 34.6425L50.3228 68.4969C47.9893 70.7167 48.3323 74.5314 51.0245 76.2992L95.8706 105.746C98.9278 107.754 103.035 105.907 103.563 102.288L117.191 8.77205C117.755 4.90801 113.869 1.91862 110.279 3.45336Z" fill="url(#paint0_linear_2829_4747)"/>
</g>
<defs>
<linearGradient id="paint0_linear_2829_4747" x1="54.3773" y1="61.3279" x2="54.3773" y2="110.054" gradientUnits="userSpaceOnUse">
<stop stop-color="#07699A"/>
<stop offset="1" stop-color="white"/>
</linearGradient>
<clipPath id="clip0_2829_4747">
<rect width="118" height="111" fill="white"/>
</clipPath>
</defs>
</svg>
