<svg width="29" height="39" viewBox="0 0 29 39" fill="none" xmlns="http://www.w3.org/2000/svg">
<path d="M14.3838 0C5.92267 0 0 7.22178 0 15.293C0.00010898 22.5144 5.92285 29.7356 14.3838 38.6562C22.8447 29.7357 28.7675 22.5144 28.7676 15.293C28.7676 7.22182 22.8448 6.07759e-05 14.3838 0ZM14.3838 2.47266C20.8382 2.47273 26.0703 7.70474 26.0703 14.1592C26.0703 20.6136 20.8382 25.8456 14.3838 25.8457C7.92928 25.8457 2.69629 20.6137 2.69629 14.1592C2.69631 7.70469 7.9293 2.47266 14.3838 2.47266Z" fill="url(#paint0_linear_2823_1170)"/>
<circle cx="8.09094" cy="8.09094" r="8.09094" transform="matrix(-1 0 0 1 22.4747 6.06836)" fill="url(#paint1_linear_2823_1170)"/>
<defs>
<linearGradient id="paint0_linear_2823_1170" x1="14.3838" y1="0" x2="14.3838" y2="38.6562" gradientUnits="userSpaceOnUse">
<stop stop-color="#DC0B1A"/>
<stop offset="1" stop-color="#76060E"/>
</linearGradient>
<linearGradient id="paint1_linear_2823_1170" x1="8.09094" y1="0" x2="8.09094" y2="16.1819" gradientUnits="userSpaceOnUse">
<stop stop-color="#DC0B1A"/>
<stop offset="1" stop-color="#76060E"/>
</linearGradient>
</defs>
</svg>
