<svg width="27" height="21" viewBox="0 0 27 21" fill="none" xmlns="http://www.w3.org/2000/svg">
<path d="M9.52832 1.91602C6.59033 3.14037 5.11579 5.57532 5.10547 7.87402C5.48187 7.80247 5.87035 7.76367 6.26758 7.76367C9.68352 7.76377 12.4529 10.5333 12.4531 13.9492C12.4531 17.3653 9.68364 20.1347 6.26758 20.1348C2.85143 20.1348 0.0820312 17.3654 0.0820312 13.9492C0.0820391 13.8107 0.0877085 13.6733 0.0966797 13.5371C0.0648155 13.5379 0.0326183 13.54 0 13.54C0 4.51353 5.91013 0.752209 8.86523 0L9.52832 1.91602Z" fill="#C4D6DD"/>
<path d="M24.0259 1.91602C21.0879 3.14037 19.6133 5.57532 19.603 7.87402C19.9794 7.80247 20.3679 7.76367 20.7651 7.76367C24.1811 7.76377 26.9505 10.5333 26.9507 13.9492C26.9507 17.3653 24.1812 20.1347 20.7651 20.1348C17.349 20.1348 14.5796 17.3654 14.5796 13.9492C14.5796 13.8107 14.5853 13.6733 14.5942 13.5371C14.5624 13.5379 14.5302 13.54 14.4976 13.54C14.4976 4.51353 20.4077 0.752209 23.3628 0L24.0259 1.91602Z" fill="#C4D6DD"/>
</svg>
