<svg width="39" height="37" viewBox="0 0 39 37" fill="none" xmlns="http://www.w3.org/2000/svg">
<path d="M37.2275 19.3643V20.8643C37.8342 20.8643 38.3812 20.4988 38.6134 19.9383C38.8455 19.3778 38.7172 18.7326 38.2882 18.3036L37.2275 19.3643ZM28.9824 19.3643V17.8643C28.154 17.8643 27.4824 18.5358 27.4824 19.3643H28.9824ZM28.9824 34.6895V36.1895C29.8108 36.1895 30.4824 35.5179 30.4824 34.6895H28.9824ZM9.74512 34.6895H8.24512C8.24512 35.5179 8.91669 36.1895 9.74512 36.1895V34.6895ZM9.74512 19.3643H11.2451C11.2451 18.5358 10.5735 17.8643 9.74512 17.8643V19.3643ZM1.5 19.3643L0.439311 18.3036C0.0103308 18.7326 -0.117988 19.3778 0.114189 19.9383C0.346365 20.4988 0.893314 20.8643 1.5 20.8643L1.5 19.3643ZM19.3633 1.5L20.4239 0.43934C20.1426 0.15803 19.7611 -5.48363e-06 19.3633 0C18.9654 5.48363e-06 18.5839 0.158051 18.3026 0.439369L19.3633 1.5ZM37.2275 19.3643V17.8643H28.9824V19.3643V20.8643H37.2275V19.3643ZM28.9824 19.3643H27.4824V34.6895H28.9824H30.4824V19.3643H28.9824ZM28.9824 34.6895V33.1895H9.74512V34.6895V36.1895H28.9824V34.6895ZM9.74512 34.6895H11.2451V19.3643H9.74512H8.24512V34.6895H9.74512ZM9.74512 19.3643V17.8643H1.5V19.3643V20.8643H9.74512V19.3643ZM1.5 19.3643L2.56069 20.4249L20.424 2.56063L19.3633 1.5L18.3026 0.439369L0.439311 18.3036L1.5 19.3643ZM19.3633 1.5L18.3026 2.56066L36.1669 20.4249L37.2275 19.3643L38.2882 18.3036L20.4239 0.43934L19.3633 1.5Z" fill="#FF4400" fill-opacity="0.67"/>
<rect x="15.042" y="20.1614" width="8.64375" height="8.64375" stroke="#FF4400" stroke-opacity="0.67" stroke-width="3" stroke-linejoin="round"/>
</svg>
