<svg width="130" height="386" viewBox="0 0 130 386" fill="none" xmlns="http://www.w3.org/2000/svg">
<g clip-path="url(#clip0_263_2824)">
<circle cx="-0.234131" cy="381.766" r="414.266" stroke="#D9D9D9"/>
<path d="M67.0477 90.5963C53.5434 67.5665 26.8232 24.6329 -0.185536 0.276367L-0.185547 13.2633C23.9749 35.23 47.0568 73.4566 59.1371 94.2267L67.0477 90.5963Z" fill="#25714A"/>
<path d="M34.1099 62.3744C25.9141 50.2325 14.3363 34.1447 -0.20752 19.8457V23.7589C2.32216 27.705 19.2361 53.6726 26.5212 66.2193C28.9496 64.9039 30.6698 64.1956 34.1099 62.3744Z" fill="#780000"/>
<path d="M31.2338 83.3564C22.8357 69.4269 4.7847 39.7264 -0.233887 32.3604V48.5496L23.7463 87.6061L31.2338 83.3564Z" fill="#13294A"/>
<path d="M19.4966 90.1823L-0.233887 58.6133V74.8025L12.4138 94.8367L19.4966 90.1823Z" fill="#FFA704"/>
<path d="M43.3814 77.5004C42.1981 75.7255 37.9976 68.9218 36.4002 66.667L28.709 70.6375L35.4536 81.346C38.3526 79.9261 39.8908 79.0978 43.3814 77.5004Z" fill="#780000"/>
<path d="M10.9425 101.717C8.0598 97.001 3.35612 89.0422 -0.26709 82.9582V99.5164C1.80697 102.762 6.87946 110.721 8.72354 114.261C16.8374 106.664 35.0567 96.5584 42.8017 92.9441C46.7848 99.2876 50.1041 104.967 53.2022 110.057C82.6333 93.6079 120.547 80.6258 127.333 78.2654C132.762 76.3771 131.021 71.0367 129.472 68.6025C119.883 71.553 82.6333 84.2401 56.3917 98.5761C52.2433 92.354 48.8502 87.0431 46.007 81.8451C36.1351 86.2283 18.9554 95.8196 10.9425 101.717Z" fill="#26714B"/>
<path d="M50.6309 206.091C45.0406 190.501 14.8715 133.167 -0.108444 111.607C-1.93461 113.366 -1.88354 121.388 -0.108444 124.048C19.6556 153.663 45.1981 209.083 48.2688 216.957H55.1189C56.4417 214.437 78.2412 166.408 88.9756 142.708L87.8733 137.59L46.6941 182.864L50.6309 191.21C56.9823 184.15 58.1949 182.864 63.9374 176.408C59.4898 186.831 54.0745 198.251 50.6309 206.091Z" fill="#2D8A59"/>
<path d="M79.4027 111.929L73.9851 102.344L65.8784 105.85L67.0887 108.195L51.4308 116.062C47.4975 109.922 43.2616 103.354 40.7653 99.194C33.3139 102.749 18.678 111.521 10.9316 118.547C18.2998 127.974 35.4633 161.117 44.5369 178.09C66.2348 154.163 110.615 105.364 114.551 101.582C115.31 99.7661 115.954 98.0627 116.695 96.3441L109.631 93.9473C85.847 120.403 64.0458 143.557 46.5658 163.16C42.8959 155.953 25.6435 125.821 22.7264 120.403C27.8307 116.592 32.4448 113.717 37.7984 110.749C38.9652 112.638 45.2302 123.019 48.2168 127.974L64.29 119.239L79.4027 111.929Z" fill="#1C5639"/>
<path d="M85.4819 112.696L105.94 90.4111L79.2524 101.901L85.4819 112.696Z" fill="#FFA704"/>
<path d="M110.991 89.0666L119.654 92.6676L122.786 84.6826L110.991 89.0666Z" fill="#FFA704"/>
<path d="M92.1294 132.982L95.5788 150.512L106.21 133.604L111.582 111.607L92.1294 132.982Z" fill="#1B3A6C"/>
<path d="M47.5416 154.815L84.1075 114.646L62.6217 125.589L49.4099 139.935L36.3316 116.914L28.9917 121.518L47.5416 154.815Z" fill="#9E0000"/>
<path d="M-0.35635 131.471C13.2545 152.075 46.4462 214.869 54.871 248.033C56.3288 253.771 56.3306 258.027 49.4254 261.996C22.187 277.653 19.3785 303.521 22.612 326.247C23.2711 330.88 21.3268 335.008 19.3573 336.157C18.5277 338.338 17.6518 339.056 16.2611 340.896C15.8216 336.316 12.8129 331.553 11.3635 329.745L13.8978 328.614L9.74286 321.755L12.891 319.519C11.3635 317.072 10.3107 315.025 8.82739 312.315C9.19446 308.607 11.3635 306.327 12.891 304.872C12.891 301.614 6.37935 215.627 6.37935 203.701C7.39307 201.843 8.76154 200.084 10.0119 198.042C13.6834 205.589 27.5265 236.424 33.4995 257.455C32.5452 258.446 27.9051 261.93 26.2596 263.872L20.2585 254.705C21.2246 253.966 22.1132 253.341 22.9748 252.672C22.1526 249.344 18.3252 238.789 16.5143 233.928L20.0514 279.424C26.6576 265.849 37.8794 258.171 47.1339 252.672C42.3237 232.321 19.8616 182.998 -0.35635 148.902C-4.1414 142.518 -2.79311 136.244 -0.35635 131.471Z" fill="#014C60"/>
<path d="M2.82241 350.061L-0.256869 353.39L-0.202761 305.751L2.22463 301.708C1.54882 297.006 0.117201 286.688 -0.202761 283.039C-0.522722 279.389 -2.4618 217.43 -0.202761 180.737L1.88673 176.302L-0.202761 171.614C-1.64634 163.963 -1.52938 162.675 -0.202761 156.408C17.1674 186.688 37.4475 230.087 43.1751 252.433C41.4477 253.42 39.4682 254.739 37.4475 256.224C32.5734 237.927 18.6 204.881 9.43252 188.438C7.50695 191.559 5.63278 194.395 2.82992 199.387C2.82992 219.091 5.1694 293.003 9.89645 303.206C6.74827 305.203 5.08355 310.131 4.65334 312.075C5.91834 314.11 8.06552 317.385 8.98098 318.768L4.65334 321.515L8.31519 328.374L4.65334 330.753L8.31519 337.411L2.82241 340.656V350.061Z" fill="url(#paint0_linear_263_2824)"/>
<path d="M6.1932 355.72L3.41992 354.004L5.88506 351.582V344.759L10.4632 341.634L13.4566 348.545L12.0479 352.199C11.2996 351.993 9.61799 351.794 8.87844 352.639C8.1389 353.484 6.78014 355.045 6.1932 355.72Z" fill="#AE0101"/>
<path d="M46.8194 268.138C46.7476 267.789 46.5876 266.827 46.5217 265.772C44.5226 266.804 41.9373 268.837 40.6747 270.1C40.825 271.332 41.0015 272.174 41.0015 272.876C30.6616 281.771 24.4663 295.573 25.8538 318.867C27.6984 316.383 32.7713 305.954 32.8068 302.052C32.8423 298.149 36.5727 287.478 41.0015 282.469C41.6667 281.717 45.1875 272.631 46.8194 268.138Z" fill="#3C539F"/>
<path d="M60.0164 236.553L57.5156 242.351L51.0361 223.481H57.5156L90.5382 150.693L92.1296 159.084L72.0092 207.453L61.2669 230.358L58.3682 231.722L60.0164 236.553Z" fill="#AE0101"/>
<path d="M10.288 360.841C8.52083 360.041 5.57561 358.527 -0.00733757 358.442C-3.08662 358.442 -3.59668 367.026 -0.00733757 367.026C1.2265 367.026 4.71456 367.482 7.13237 369.003C12.013 372.075 13.7018 362.385 10.288 360.841Z" fill="#2B8255"/>
<path d="M6.58844 373.428C5.76957 372.749 3.28339 371.117 -0.141098 371.079C-2.02988 371.079 -2.34274 374.995 -0.141098 374.995C0.615721 374.995 3.15653 375.345 4.3577 376.689C6.56023 379.153 9.10517 375.516 6.58844 373.428Z" fill="#FFA704"/>
</g>
<defs>
<linearGradient id="paint0_linear_263_2824" x1="20.9467" y1="156.408" x2="20.9467" y2="353.39" gradientUnits="userSpaceOnUse">
<stop stop-color="#3C539F"/>
<stop offset="1" stop-color="#161E39"/>
</linearGradient>
<clipPath id="clip0_263_2824">
<rect width="130" height="386" fill="white"/>
</clipPath>
</defs>
</svg>
