<svg width="4465" height="1662" viewBox="0 0 4465 1662" fill="none" xmlns="http://www.w3.org/2000/svg">
<path d="M3946.72 971.423C4127.93 971.423 4271.93 928.025 4463.38 790.695C4356.06 900.678 4166.76 1017.79 3946.72 1017.79C3553.56 1017.79 3516.88 703.303 3038.51 703.303C2519.15 703.303 2301.8 1067.14 1670.8 1067.14C1280.34 1067.14 892.569 715.193 892.569 494.634C892.569 417.943 944.882 318.066 1084.57 318.066C1255.53 318.066 1360.02 442.687 1396.83 558.839C1418.64 627.676 1412.12 696.624 1418.94 726.489C1380.11 683.685 1360.16 656.932 1332.65 514.252C1305.15 371.571 1149.82 331.74 1084.57 331.74C1003.4 331.74 913.063 392.379 913.063 494.634C913.063 666.93 1113.64 849.673 1322.4 953.588C1449.31 1016.76 1577.21 1042.76 1670.8 1042.76C2273.22 1042.76 2554.2 675.362 3038.51 675.362C3504.48 675.362 3556.25 971.423 3946.72 971.423Z" fill="#020F55" fill-opacity="0.03"/>
<path d="M3810.81 331.738C3871.75 331.738 3954.27 374.543 3954.27 473.824C3954.27 505.333 3943.14 558.88 3903.03 570.728C3888.47 575.029 3878.01 563.593 3879.3 544.569C3879.3 521.384 3888.47 515.439 3888.47 483.931C3888.47 384.649 3821.06 368.598 3794.63 368.598C3768.2 368.598 3652.79 398.917 3652.79 583.212C3652.79 716.38 3796.79 882.246 3954.27 986.284L3908.96 994.607C3751.48 890.57 3625.28 716.38 3625.28 583.212C3625.28 390.594 3757.96 331.739 3810.81 331.738ZM3885.77 406.051C3905.19 443.504 3903.03 464.312 3898.72 515.439C3894.4 566.566 3919.21 521.978 3919.21 498.198C3919.21 474.418 3913.28 445.288 3885.77 406.051Z" fill="#020F55" fill-opacity="0.03"/>
<path d="M3925.03 14.5006C3688.03 14.5006 3470.03 159 3447.53 407C3435.49 539.624 3462.03 836 3893.03 973.001L3908.53 994.5C3466.53 855.5 3416.49 539.624 3428.53 407C3451.03 159 3688.03 0 3925.03 0C4214.03 0 4374.53 188 4273.03 350C4295.88 272.758 4211.53 207 4211.53 115C4139.59 43.0835 4020.04 14.5006 3925.03 14.5006Z" fill="#020F55" fill-opacity="0.03"/>
<path d="M3535.23 400.754C3574.59 417.943 3626.9 410.809 3626.9 471.481C3599.39 464.347 3572.97 463.771 3554.64 442.369C3558.95 475.661 3586.31 480.1 3597.25 483.39C3620.97 490.524 3620.08 522.677 3610.73 521.438C3539 511.926 3535.23 433.452 3535.23 400.754Z" fill="#020F55" fill-opacity="0.03"/>
<path d="M3575.67 530.304C3608.44 558.246 3617.2 595.105 3613.42 612.94C3606.95 619.479 3599.4 612.345 3586.99 603.428C3557.3 582.08 3539.53 596.294 3509.33 574.892C3520.12 619.479 3584.3 612.94 3607.49 636.72C3630.68 660.5 3590.84 665.895 3571.35 661.094C3525.51 649.799 3512.57 619.479 3496.93 589.16C3481.29 558.84 3474.28 530.304 3455.94 509.497C3479.67 517.225 3540.07 499.95 3575.67 530.304Z" fill="#020F55" fill-opacity="0.03"/>
<path d="M3541.69 676.551C3607.49 678.335 3646.32 729.462 3659.8 758.593C3616.12 728.868 3566.5 746.703 3520.12 741.947C3545.47 765.727 3581.6 753.837 3630.68 768.699C3679.76 783.562 3707.26 816.854 3707.26 844.795C3707.26 872.737 3698.09 894.733 3673.28 894.733C3648.48 894.733 3639.31 860.847 3648.48 846.579C3657.64 832.311 3675.44 831.716 3684.61 844.795C3694.32 824.582 3663.34 800.711 3613.42 794.857C3562.72 788.912 3536.84 778.211 3509.33 755.026C3481.83 731.84 3460.25 721.733 3427.36 715.788C3448.93 709.249 3475.89 674.768 3541.69 676.551Z" fill="#020F55" fill-opacity="0.03"/>
<path d="M3807.57 1350.12C3807.57 1370.93 3823.75 1391.74 3849.1 1379.25L3851.8 1370.33C3838.31 1379.25 3818.36 1375.09 3818.36 1354.28C3818.36 1347.15 3819.98 1331.69 3842.63 1332.28C3865.28 1332.88 3890.09 1349.06 3890.09 1395.3C3890.09 1450 3849.1 1477.34 3807.57 1477.34C3752.56 1477.34 3665.73 1429.19 3665.73 1327.67C3665.73 1206.99 3741.24 1159.29 3826.45 1153.93C3901.83 1149.2 4041.14 1162.65 4157.05 1111.13C4290.8 1051.68 4381.95 914.945 4449.9 816.258H4446.66C4378.71 914.945 4277.32 1035.63 4143.57 1095.08C4027.65 1146.6 3899.14 1138.5 3823.75 1143.23C3738.54 1148.58 3651.17 1202.68 3651.17 1323.37C3651.17 1444.05 3752.56 1489.23 3807.57 1489.23C3872.29 1489.23 3899.26 1441.08 3899.26 1392.33C3899.26 1337.64 3865.28 1315.64 3842.63 1315.04C3819.98 1314.45 3807.57 1335.26 3807.57 1350.12Z" fill="#020F55" fill-opacity="0.03"/>
<path d="M3939.69 1268.67C4163.51 1268.67 4370.61 1091.51 4461.75 803.179C4355.51 1048.71 4163.51 1227.06 3939.7 1227.06C3715.88 1227.06 3569.72 1084.97 3442.99 894.732C3316.25 704.491 3232.65 558.244 3066 558.244C2899.35 558.244 2781.78 741.351 2705.74 913.756C2629.7 1086.16 2373.52 1500.53 2003.55 1500.53C1836.36 1500.53 1741.98 1451.19 1631.42 1395.9C1689.67 1439.89 1819.1 1527.28 2026.74 1527.28C2396.71 1527.28 2629.7 1127.78 2705.74 955.37C2781.78 782.965 2899.35 592.724 3066 592.724C3232.65 592.724 3316.25 746.106 3442.99 936.346C3569.72 1126.59 3715.88 1268.67 3939.69 1268.67Z" fill="#020F55" fill-opacity="0.03"/>
<path d="M2034.29 1661.07C2183.14 1649.18 2206.87 1595.08 2200.94 1522.55C2182.06 1573.08 2140.54 1611.72 2108.72 1625.99C2143.77 1592.1 2166.42 1546.33 2162.65 1535.63C2096.85 1535.63 2059.1 1625.4 2034.29 1661.07Z" fill="#020F55" fill-opacity="0.03"/>
<path d="M1996.54 1615.29C2021.89 1599.24 2026.74 1580.81 2072.58 1555.84C2060.72 1555.84 2038.07 1552.27 2011.64 1573.08C1985.21 1593.89 1927.51 1632.53 1878.43 1628.96C1914.02 1615.29 2003.55 1570.11 2005.71 1550.49C1928.59 1524.93 1822.34 1621.83 1770.03 1640.85C1906.47 1684.25 1971.19 1631.34 1996.54 1615.29Z" fill="#020F55" fill-opacity="0.03"/>
<path d="M1799.15 1595.08C1825.04 1584.79 1853.08 1569.51 1894.07 1543.95C1837.44 1508.87 1812.63 1547.52 1760.32 1565.95C1728.27 1577.24 1692.36 1589.13 1663.24 1583.19C1686.43 1562.97 1763.55 1561.79 1799.15 1523.14C1790.52 1513.63 1764.64 1494.61 1715.02 1502.34C1657.3 1511.32 1582.35 1565.95 1559.15 1598.64C1588.82 1592.1 1647.6 1615.29 1695.6 1614.1C1743.6 1612.91 1766.25 1608.16 1799.15 1595.08Z" fill="#020F55" fill-opacity="0.03"/>
<path d="M909.184 794.578C992.883 863.22 1048.97 828.144 1064.07 809.715C1034.95 821.01 995.981 824.272 970.232 815.065C1007.34 814.047 1043.37 803.284 1046.28 794.578C1007.22 757.418 941.069 786.677 909.184 794.578Z" fill="#020F55" fill-opacity="0.03"/>
<path d="M906.592 749.076C948.12 757.203 957.288 749.076 996.658 749.076C989.616 742.375 981.904 729.817 956.209 727.674C930.515 725.531 875.22 727.264 847.807 697.354C875.511 709.058 955.738 720.078 966.456 709.244C933.558 630.176 810.886 668.248 770.685 650.389C829.47 735.997 883.826 744.62 906.592 749.076Z" fill="#020F55" fill-opacity="0.03"/>
<path d="M815.448 607.585C835.763 615.883 875.899 624.514 912.525 631.959C895.789 578.429 853.206 584.788 813.291 566.564C788.834 555.398 767.852 542.671 753.426 522.571C776.915 523.251 817.131 566.564 882.322 560.027C876.93 529.712 854.552 499.485 821.379 476.204C782.801 449.13 707.791 444.475 678.29 451.458C699.042 464.194 728.618 516.626 750.191 549.918C772.071 583.686 789.63 597.039 815.448 607.585Z" fill="#020F55" fill-opacity="0.03"/>
<path fill-rule="evenodd" clip-rule="evenodd" d="M2227.38 1367.96C2276.45 1367.96 2285.08 1373.91 2363.82 1375.09C2341.71 1393.72 2295.98 1428.84 2289.94 1420.28C2282.39 1409.58 2268.36 1408.39 2227.38 1414.33C2186.39 1420.28 2168.59 1405.41 2165.89 1397.69C2163.2 1389.96 2178.3 1367.96 2227.38 1367.96ZM2266.21 1391.15C2242.48 1383.42 2210.12 1384.61 2192.86 1391.15C2175.6 1397.69 2206.88 1404.23 2221.98 1403.04C2237.08 1401.85 2250.03 1395.31 2266.21 1391.15Z" fill="#020F55" fill-opacity="0.03"/>
<path fill-rule="evenodd" clip-rule="evenodd" d="M2054.26 1417.9C2114.66 1417.9 2136.77 1453.57 2247.33 1450.6C2225.22 1469.22 2131.3 1501.79 2132.46 1491.02C2135.16 1466.05 2108.19 1460.11 2067.2 1466.05C2026.21 1472 2004.1 1451.79 2001.4 1444.06C1998.71 1436.33 1993.85 1417.9 2054.26 1417.9ZM2108.19 1442.87C2074.21 1428.6 2038.92 1430.38 2021.66 1436.92C2004.4 1443.46 2038.62 1452.38 2053.72 1451.19C2068.82 1450 2092.01 1447.03 2108.19 1442.87Z" fill="#020F55" fill-opacity="0.03"/>
<path fill-rule="evenodd" clip-rule="evenodd" d="M1904.87 1428.6C1965.27 1428.6 1991.7 1494 2124.37 1489.24C2102.26 1507.87 1992.66 1514.81 1983.07 1512.43C1966.35 1508.26 1943.7 1501.72 1916.19 1489.24C1877.97 1471.89 1879.52 1470.22 1876.82 1462.49C1874.13 1454.76 1869.81 1428.6 1904.87 1428.6ZM2019.2 1491.02C1985.23 1476.76 1928.6 1436.67 1896.54 1448.82C1879.28 1455.35 1909.19 1467.41 1923.74 1472C1946.4 1479.13 2003.02 1495.19 2019.2 1491.02Z" fill="#020F55" fill-opacity="0.03"/>
<path d="M3935.93 1060C4208.82 1060 4309.14 928.619 4465 792.478C4338.8 936.347 4208.82 1092.7 3935.93 1092.7C3553.02 1092.7 3423.58 762.753 3067.63 762.753C2745.66 762.753 2481.39 1139.67 2026.75 1139.67C1749 1139.67 1523.03 1010.07 1523.03 786.533C1523.03 563 1707.48 476.203 1806.71 476.203C1915.11 476.203 1986.62 535.518 2017.04 581.43C2062.35 649.798 2063.96 687.251 2059.11 760.969C2055.41 725.894 2004.97 700.925 1967.43 595.698C1948.55 542.787 1871.43 495.822 1806.71 495.822C1741.99 495.822 1552.42 555.866 1552.42 779.399C1552.42 973.206 1789.45 1113.51 2026.75 1113.51C2481.39 1113.51 2745.66 734.811 3067.63 734.811C3423.58 734.811 3553.02 1060 3935.93 1060Z" fill="#020F55" fill-opacity="0.03"/>
<path d="M2366.52 505.335C2366.52 602.833 2317.98 667.634 2243.56 667.634C2161.04 667.634 2144.86 588.565 2120.59 553.49C2171.29 549.923 2184.23 625.424 2254.34 625.424C2294.25 625.424 2337.4 602.833 2337.4 505.335C2337.4 407.837 2280.77 294.882 2158.88 294.882C2024.05 294.882 1871.43 372.761 1871.43 614.129C1871.43 863.225 2072.59 1005.31 2303.96 1005.31C2473.84 1005.31 2629.17 907.218 2653.98 895.328L2611.37 933.376C2586.56 945.266 2473.84 1030.28 2303.96 1030.28C2072.59 1030.28 1847.7 884.627 1847.7 614.129C1847.7 343.631 2024.05 274.074 2158.88 274.074C2306.12 274.074 2366.52 407.837 2366.52 505.335Z" fill="#020F55" fill-opacity="0.03"/>
<path d="M1917.27 531.499C1917.27 271.696 2116.28 126.044 2255.96 126.044C2361.67 126.044 2422.61 195.6 2443.1 214.029C2463.6 232.459 2493.26 278.235 2612.99 305.583C2553.66 261.589 2560.13 231.27 2493.8 183.71C2427.46 136.15 2368.68 107.02 2262.43 107.02C2082.3 107.02 1890.84 284.775 1890.84 531.499C1890.84 838.857 2089.85 967.864 2155.65 1001.16L2182.07 1001.16C2116.28 967.864 1917.27 838.857 1917.27 531.499Z" fill="#020F55" fill-opacity="0.03"/>
<path d="M1289.51 892.352C1061.91 892.352 1041.96 1012.44 805.2 1012.44C769.607 1012.44 645.561 1005.31 601.876 932.183C558.192 859.06 511.812 844.792 476.756 820.418C441.701 796.043 429.836 774.046 370.51 765.129C422.284 779.991 489.699 884.029 531.226 920.294L531.611 920.63C573.292 957.03 660.569 1033.25 805.199 1033.25C1010.14 1033.25 1061.91 922.672 1289.51 922.672C1479.89 922.672 1644.91 1046.33 1714.49 1077.84L1705.32 1059.41C1635.75 1027.9 1479.89 892.352 1289.51 892.352Z" fill="#020F55" fill-opacity="0.03"/>
<path d="M1189.19 1076.04C1189.19 1284.73 1387.66 1354.86 1522.49 1354.86C1590.44 1354.86 1643.3 1289.48 1670.8 1244.89C1615.79 1293.64 1564.02 1274.02 1528.42 1289.48C1492.83 1304.94 1485.28 1320.99 1435.66 1320.99C1367.71 1320.99 1206.99 1247.27 1206.99 1076.04C1206.99 974.99 1318.09 920.89 1383.35 928.619L1342.36 909.576C1298.13 909.578 1189.19 958.336 1189.19 1076.04Z" fill="#020F55" fill-opacity="0.03"/>
<path d="M0 863.224C0 977.368 74.4256 1075.46 227.052 1075.46C343.005 1075.46 358.106 991.041 447.633 969.045C358.106 917.323 275.051 1048.11 199.008 1048.11C104.617 1048.11 25.8872 977.368 25.8872 863.224C25.8872 749.079 107.324 617.695 302.017 617.695C517.744 617.695 703.808 747.296 773.38 791.883C842.951 836.471 1006.9 929.213 1214 922.079L1210.23 907.217C1003.13 914.351 848.884 823.392 779.312 778.804C709.74 734.217 517.744 595.104 302.017 595.104C86.2906 595.104 0 749.079 0 863.224Z" fill="#020F55" fill-opacity="0.03"/>
<path d="M3156.62 1422.05C3228.35 1422.05 3296.84 1376.28 3296.84 1294.83C3296.84 1207.44 3238.06 1197.93 3217.02 1197.93C3169.02 1197.93 3165.25 1249.65 3128.04 1249.05C3181.97 1279.97 3183.58 1237.16 3224.57 1237.16C3265.56 1237.16 3270.41 1279.37 3270.41 1294.83C3270.41 1341.2 3228.35 1396.49 3156.62 1396.49C3084.89 1396.49 2950.6 1331.69 2950.6 1130.15C2950.6 928.618 3128.04 902.46 3207.85 902.46C3521.2 902.46 3547.62 1126.59 3932.16 1126.59C4097.19 1126.59 4255.21 1064.76 4404.6 856.684C4236.87 1054.06 4097.19 1108.16 3932.16 1108.16C3547.62 1108.16 3510.95 867.979 3197.61 867.979C3077.34 867.979 2924.71 935.752 2924.71 1137.29C2924.71 1338.82 3084.89 1422.05 3156.62 1422.05Z" fill="#020F55" fill-opacity="0.03"/>
<path d="M3179.81 812.096C3341.07 812.096 3430.59 899.487 3508.25 936.346V917.917C3430.59 881.058 3341.07 793.666 3179.81 793.666C3018.55 793.666 2713.82 914.58 2723.55 1164.63C2730.56 1344.77 2713.3 1364.39 2674.47 1380.44C2678.07 1374.69 2685.26 1359.51 2685.26 1344.77C2685.26 1326.34 2674.47 1316.83 2656.67 1316.83C2638.88 1316.83 2629.71 1331.69 2629.71 1351.9C2629.71 1372.12 2637.26 1398.87 2674.47 1398.87C2719.77 1398.87 2772.63 1372.71 2761.84 1164.63C2748.89 914.757 3018.55 812.096 3179.81 812.096Z" fill="#020F55" fill-opacity="0.03"/>
<path d="M2714.92 485.718C2709.94 510.685 2685.26 506.526 2677.71 495.23C2683.64 520.789 2716.63 513.814 2720.85 488.678C2726.24 456.587 2704.13 429.831 2668 431.609C2642.47 432.866 2612.45 461.336 2612.45 507.707C2612.45 566.57 2670.7 614.123 2740.27 614.123C2809.84 614.123 2968.4 536.251 3085.97 577.271L3102.15 565.381C2984.58 524.361 2809.84 595.701 2740.27 595.701C2670.7 595.701 2625.93 557.653 2625.93 511.282C2625.93 464.911 2644.27 445.878 2669.62 442.32C2687.81 439.766 2720.85 455.991 2714.92 485.718Z" fill="#020F55" fill-opacity="0.03"/>
<path d="M2710.6 659.312C2823.86 659.312 2931.72 582.622 3007.77 577.271V586.779C2931.72 592.129 2823.84 675.578 2710.6 677.734C2616.76 679.521 2554.2 653.958 2501.89 590.94C2460.36 543.38 2453.35 501.171 2413.98 453.021C2462.66 458.387 2505.66 519.01 2547.19 566.57C2599.51 629.587 2654.14 659.312 2710.6 659.312Z" fill="#020F55" fill-opacity="0.03"/>
<path d="M3612.36 1221.71C3613.43 1169.39 3578.38 1136.7 3547.64 1111.73C3560.45 1175.93 3602.65 1193.77 3591.86 1256.19C3591.86 1200.31 3554.65 1187.23 3535.77 1129.56C3532 1221.71 3551.95 1281.16 3567.05 1318.61C3582.15 1356.07 3608.04 1385.79 3624.22 1385.79C3635.01 1385.79 3644.71 1379.25 3644.71 1366.17C3644.71 1341.18 3625.84 1337.04 3615.59 1356.66C3611.28 1353.09 3604.27 1340.01 3602.65 1318.61C3601.03 1297.21 3611.28 1274.02 3612.36 1221.71Z" fill="#020F55" fill-opacity="0.03"/>
<path d="M3398.77 1092.11C3429.88 1108.77 3507.71 1114.1 3535.77 1085.57C3495.31 1093.89 3403.08 1094.74 3380.97 1053.46C3399.85 1071.89 3469.42 1077.9 3488.3 1067.73C3417.11 1001.74 3357.24 982.125 3317.87 980.936C3278.5 979.747 3264.48 1002.34 3263.4 1011.26C3262.32 1020.17 3262.86 1047.52 3293.6 1046.93C3321.65 1046.38 3313.56 1005.9 3295.76 1005.9C3331.9 1002.34 3342.14 1061.79 3398.77 1092.11Z" fill="#020F55" fill-opacity="0.03"/>
<path d="M3485.06 1243.7C3519.58 1193.17 3514.19 1146.21 3521.74 1120.05C3500.16 1133.13 3482.91 1162.85 3476.97 1194.36C3471.04 1225.87 3466.73 1238.35 3453.78 1251.43C3459.71 1235.98 3458.64 1225.27 3462.95 1190.79C3467.26 1156.31 3485.06 1133.13 3499.62 1120.05C3490.46 1120.05 3450.01 1120.05 3428.43 1149.18C3406.86 1178.31 3398.77 1205.66 3393.92 1256.19C3390.38 1293.05 3370.19 1297.8 3362.64 1297.8C3373.96 1287.7 3377.74 1282.94 3377.74 1266.89C3377.74 1250.84 3371.81 1239.54 3358.32 1239.54C3344.84 1239.54 3331.36 1256.19 3331.36 1275.21C3331.36 1294.24 3342.14 1315.04 3373.96 1315.04C3405.78 1315.04 3450.55 1294.24 3485.06 1243.7Z" fill="#020F55" fill-opacity="0.03"/>
<path d="M904.434 1061.2C969.233 1049.81 1050.05 1051.68 1076.48 1055.25C994.105 1058.82 875.311 1103.41 820.84 1156.32C888.633 1136.77 943.804 1087.95 1013.38 1076.06C935.175 1145.02 842.032 1171.77 790.638 1171.77C738.324 1171.77 718.096 1144.16 712.437 1120.31C708.665 1104.41 715.581 1090.21 731.853 1087.95C757.547 1084.38 775.537 1120.31 738.324 1137.89C744.161 1143 765.83 1140.86 800.346 1111.13C821.567 1092.86 867.221 1067.74 904.434 1061.2Z" fill="#020F55" fill-opacity="0.03"/>
<path d="M1094.27 1285.92C1067.9 1241.95 1064.61 1167.01 1071.63 1111.73C1086.19 1170.59 1139.04 1211.02 1160.07 1322.19C1169.24 1214.97 1065.89 1112.2 1071.63 1080.82C1167.62 1187.83 1180.56 1275.22 1177.87 1331.1C1174.98 1391.03 1151.44 1428.6 1110.99 1428.6C1099.71 1428.6 1077.56 1418.49 1077.56 1391.75C1077.56 1346.55 1139.03 1367.36 1123.4 1410.17C1144.43 1404.82 1144.43 1369.52 1094.27 1285.92Z" fill="#020F55" fill-opacity="0.03"/>
<path d="M889.547 1214.97C938.776 1146.42 988.602 1129.04 1017.69 1108.76C1009.37 1145.14 1001.51 1197.94 985.874 1237.18C969.642 1277.9 938.924 1284.74 927.628 1334.08C944.305 1319.93 977.245 1293.87 996.121 1257.39C1021.55 1208.23 1006.37 1133.14 1042.5 1100.3C1045.71 1113.81 1051.82 1223.4 1024.02 1265.39C996.231 1307.38 966.092 1342.34 905.083 1362.61C848.888 1381.29 841.861 1430.98 881.247 1430.98C875.854 1414.93 879.572 1402.71 899.045 1397.1C918.517 1391.48 922.235 1416.12 922.235 1425.04C922.235 1445.58 905.083 1453.57 895.809 1453.57C871.954 1453.57 847.613 1451.73 836.484 1404.82C825.354 1357.92 840.317 1283.53 889.547 1214.97Z" fill="#020F55" fill-opacity="0.03"/>
<path d="M1926.99 247.323C1913.5 315.097 1912.43 363.846 1829.91 432.808C1897.33 341.255 1864.97 247.323 1891.39 193.224C1851.48 247.323 1871.98 341.849 1837.46 398.921C1817.51 259.411 1865.37 179.568 1897.33 142.691C1943.17 89.7806 2003.28 94.0293 2021.37 101.076C2033.9 105.96 2048.15 112.966 2045.1 140.313C2041.65 171.238 2001.41 175.73 2015.44 123.073C1994.94 116.533 1976.6 126.64 1962.04 146.258C1946.67 166.975 1939.66 183.612 1926.99 247.323Z" fill="#020F55" fill-opacity="0.03"/>
<path d="M1650.86 366.818C1722.07 366.82 1793.78 376.329 1829.91 409.027C1778.68 398.921 1657.18 398.494 1624.43 445.886C1650.07 426.216 1774.36 411.405 1827.21 416.756C1775.98 451.236 1702.63 463.72 1672.97 469.068C1581.82 473.227 1537.59 398.921 1504.15 439.34C1524.65 435.778 1530.59 447.075 1530.59 461.342C1530.59 475.61 1519.25 483.338 1507.39 483.338C1495.52 483.338 1476.65 472.044 1476.65 445.886C1476.65 388.806 1546.76 366.816 1650.86 366.818Z" fill="#020F55" fill-opacity="0.03"/>
<path d="M1768.43 172.416C1808.88 235.434 1823.44 280.021 1820.74 348.968C1782.99 346.605 1740.11 305.673 1723.67 269.914C1704.25 227.705 1682.14 200.952 1662.72 186.684C1667.85 206.79 1689.59 249.445 1711.64 285.372C1734.99 323.42 1760.34 348.968 1814.81 366.818C1795.93 366.818 1716.65 375.141 1666.52 283.282C1644.7 243.297 1638.99 218.787 1634.14 164.093C1630.06 118.12 1613.71 106.489 1604.48 105.238C1617.44 120.202 1613.65 154.231 1589.91 151.014C1573.42 148.779 1568.41 132.34 1571.04 108.805C1573.66 85.2693 1592.61 67.0385 1624.43 71.351C1663.36 76.6268 1727.28 108.312 1768.43 172.416Z" fill="#020F55" fill-opacity="0.03"/>
<path fill-rule="evenodd" clip-rule="evenodd" d="M2931.72 876.301C2899.37 897.108 2879.41 929.211 2883.19 953.586C2889.45 994.012 2905.38 993.418 2907.45 1017.79C2909.07 1036.82 2900.44 1043.95 2883.19 1036.22C2865.93 1028.49 2847.59 997.579 2843.82 979.744C2835.73 990.445 2819.55 1057.62 2875.63 1123.02C2845.97 1112.91 2815.77 1062.38 2813.61 1014.82C2806.06 1036.22 2799.59 1058.22 2804.45 1101.02C2809.6 1146.45 2827.44 1174.12 2844.89 1186.63C2877.25 1209.82 2866.47 1251.79 2836.8 1231.81C2797.97 1205.65 2782.33 1162.26 2781.25 1118.86C2780.18 1075.46 2782.87 1028.49 2790.96 1004.12C2799.05 979.743 2868.08 908.999 2875.63 904.242C2881.68 900.437 2915.55 884.029 2931.72 876.301ZM2809.84 1164.04C2815.23 1191.39 2836.8 1223.49 2844.89 1212.79C2852.98 1202.09 2825.48 1186.63 2809.84 1164.04ZM2865.39 964.289C2862.69 979.149 2862.15 994.014 2877.79 1011.25C2891.27 1024.33 2897.75 1017.79 2890.2 1001.74C2885.34 994.014 2867.01 981.529 2865.39 964.289Z" fill="#020F55" fill-opacity="0.03"/>
<path fill-rule="evenodd" clip-rule="evenodd" d="M2756.98 1153.94C2763.99 1212.79 2772.83 1247.22 2795.81 1277C2826.56 1316.83 2857.84 1323.37 2894.51 1341.21C2931.18 1359.04 2934.42 1384.01 2914.46 1396.49C2894.51 1408.98 2857.66 1404.61 2820.08 1382.23C2780.18 1358.45 2753.75 1313.26 2748.35 1257.38C2746.4 1237.18 2752.85 1194.96 2756.98 1153.94ZM2804.98 1319.21C2819.55 1342.99 2842.2 1373.31 2886.96 1380.44C2904.61 1383.25 2903.68 1360.82 2883.73 1356.66C2852.39 1350.13 2836.27 1340.61 2804.98 1319.21Z" fill="#020F55" fill-opacity="0.03"/>
</svg>
