<svg width="1020" height="1008" viewBox="0 0 1020 1008" fill="none" xmlns="http://www.w3.org/2000/svg">
<g clip-path="url(#clip0_2831_4737)">
<path d="M525.486 236.673C512.003 304.446 510.924 353.195 428.409 422.157C495.823 330.604 463.464 236.673 489.891 182.573C449.981 236.673 470.475 331.199 435.959 388.271C416.004 248.76 463.873 168.918 495.823 132.041C541.665 79.1302 601.781 83.3789 619.866 90.4257C632.401 95.3099 646.646 102.316 643.596 129.663C640.147 160.588 599.911 165.08 613.933 112.422C593.439 105.883 575.103 115.989 560.541 135.608C545.165 156.324 538.16 172.961 525.486 236.673Z" fill="white" fill-opacity="0.23"/>
<path d="M249.357 356.168C320.566 356.17 392.276 365.679 428.409 398.376C377.175 388.271 255.676 387.843 222.931 435.235C248.566 415.565 372.861 400.754 425.712 406.106C374.479 440.586 301.132 453.07 271.468 458.418C180.313 462.577 136.089 388.271 102.652 428.69C123.146 425.128 129.089 436.424 129.089 450.692C129.089 464.959 117.752 472.688 105.887 472.688C94.0221 472.688 75.147 461.393 75.1468 435.235C75.1463 378.156 145.259 356.165 249.357 356.168Z" fill="white" fill-opacity="0.23"/>
<path d="M366.926 161.766C407.375 224.783 421.937 269.371 419.24 338.318C381.488 335.955 338.611 295.023 322.163 259.264C302.748 217.054 280.636 190.302 261.22 176.034C266.345 196.14 288.086 238.794 310.136 274.721C333.489 312.769 358.837 338.318 413.308 356.168C394.432 356.168 315.152 364.491 265.017 272.632C243.195 232.647 237.491 208.137 232.637 153.443C228.557 107.47 212.211 95.8391 202.974 94.5872C215.941 109.552 212.145 143.58 188.413 140.364C171.919 138.128 166.912 121.69 169.537 98.1542C172.162 74.6189 191.109 56.3881 222.929 60.7006C261.855 65.9764 325.78 97.6618 366.926 161.766Z" fill="white" fill-opacity="0.23"/>
<path d="M234.135 566.97C299.57 544.762 342.328 521.322 443.308 558.305C330.313 545.695 265.144 620.683 205.079 624.845C271.885 632.36 343.501 567.35 410.185 568.708C299.341 655.742 206.261 654.205 158.349 644.972C89.6069 631.725 63.2298 577.538 60.2908 558.353C58.2537 545.055 57.1986 529.215 82.4073 518.184C110.914 505.71 134.921 538.309 82.3068 552.493C86.8898 573.511 104.81 584.338 129.081 587.14C154.71 590.099 172.62 587.847 234.135 566.97Z" fill="white" fill-opacity="0.23"/>
<path d="M475.679 746.363C440.078 684.693 412.46 617.835 422.712 570.195C439.576 619.617 499.952 725.054 557.367 729.718C527.515 717.352 452.544 617.112 430.754 568.665C486.231 595.796 533.714 653.076 553.177 676.092C602.354 752.957 560.113 828.407 611.835 837.157C598.504 821.19 605.316 810.394 617.672 803.261C630.028 796.128 642.39 802.082 648.322 812.357C654.254 822.633 653.909 844.626 631.256 857.705C581.823 886.244 527.723 836.518 475.679 746.363Z" fill="white" fill-opacity="0.23"/>
<path d="M248.538 741.74C282.89 675.203 314.224 640.299 375.283 608.163C392.112 642.039 378.1 699.637 355.356 731.76C328.508 769.678 316.394 802.204 313.745 826.152C328.595 811.661 354.666 771.507 374.755 734.448C396.031 695.2 405.483 660.474 393.708 604.376C403.146 620.723 449.991 685.221 395.504 774.567C371.786 813.458 353.412 830.652 308.471 862.202C270.697 888.72 268.796 908.691 272.33 917.317C278.807 898.605 310.175 884.879 319.255 907.04C325.566 922.443 313.832 934.998 292.137 944.492C270.442 953.985 245.181 946.691 233.006 916.978C218.113 880.628 213.593 809.425 248.538 741.74Z" fill="white" fill-opacity="0.23"/>
<path d="M665.853 654.152C613.904 608.586 572.226 583.275 553.767 477.332C599.341 581.494 696.867 600.442 730.502 650.379C703.609 588.765 611.502 559.246 579.337 500.816C710.131 553.297 755.338 634.676 771.297 680.786C794.194 746.943 760.453 796.878 745.308 809.016C734.81 817.429 721.62 826.262 699.462 809.946C674.406 791.494 690.636 754.404 729.225 792.879C745.137 778.401 745.554 757.468 735.845 735.048C725.594 711.372 714.689 696.987 665.853 654.152Z" fill="white" fill-opacity="0.23"/>
<path d="M700.449 355.273C664.839 416.938 620.746 474.284 574.362 489.224C608.732 449.909 669.858 344.905 645.191 292.85C649.406 324.885 600.079 439.931 569.016 483.024C564.776 421.414 590.642 351.653 600.844 323.29C642.824 242.271 729.287 241.13 711.005 191.961C703.842 211.49 691.087 210.988 678.731 203.854C666.376 196.719 665.352 183.037 671.285 172.762C677.218 162.487 696.437 151.789 719.09 164.869C768.521 193.411 752.505 265.125 700.449 355.273Z" fill="white" fill-opacity="0.23"/>
<path d="M810.01 554.298C735.21 557.814 689.316 548.129 630.957 511.316C651.881 479.805 708.769 463.142 747.96 466.779C794.222 471.072 828.447 465.301 850.512 455.622C830.537 450.006 782.727 447.504 740.589 448.634C695.962 449.832 661.161 459.007 618.465 497.253C627.904 480.906 660.34 408.089 764.96 410.606C810.499 411.702 834.577 419.019 884.369 442.165C926.221 461.621 944.467 453.281 950.17 445.908C930.727 449.654 903.157 429.351 917.809 410.407C927.993 397.241 944.733 401.125 963.802 415.168C982.871 429.21 989.184 454.735 969.538 480.134C945.504 511.206 886.099 550.72 810.01 554.298Z" fill="white" fill-opacity="0.23"/>
</g>
<defs>
<clipPath id="clip0_2831_4737">
<rect width="1020" height="1008" fill="white"/>
</clipPath>
</defs>
</svg>
