<svg width="800" height="2380" viewBox="0 0 800 2380" fill="none" xmlns="http://www.w3.org/2000/svg">
<rect width="800" height="2367" fill="#E3FFE7"/>
<rect x="0.00012207" width="800" height="880" fill="url(#paint0_linear_200_55)"/>
<rect x="0.00012207" y="880" width="800" height="1500" fill="url(#paint1_linear_200_55)"/>
<circle cx="746.159" cy="582.059" r="10.4024" fill="#A00B31" fill-opacity="0.64"/>
<circle cx="636.559" cy="457.231" r="6.84413" fill="#A00B31" fill-opacity="0.64"/>
<circle cx="629.715" cy="592.461" r="6.84413" fill="#A00B31" fill-opacity="0.64"/>
<circle cx="437.911" cy="547.908" r="6.84413" fill="#A00B31" fill-opacity="0.64"/>
<circle cx="597.999" cy="343.705" r="6.84413" fill="#A00B31" fill-opacity="0.64"/>
<circle cx="424.222" cy="241.755" r="6.84413" fill="#A00B31" fill-opacity="0.64"/>
<circle cx="721.796" cy="101.3" r="6.84413" fill="#A00B31" fill-opacity="0.64"/>
<circle cx="674.222" cy="200.977" r="3.31752" fill="#A00B31" fill-opacity="0.64"/>
<circle cx="580.861" cy="131.505" r="3.31752" fill="#A00B31" fill-opacity="0.64"/>
<circle cx="473.632" cy="290.839" r="3.31752" fill="#A00B31" fill-opacity="0.64"/>
<circle cx="540.813" cy="414.68" r="3.31752" fill="#A00B31" fill-opacity="0.64"/>
<circle cx="721.796" cy="474.718" r="3.31752" fill="#A00B31" fill-opacity="0.64"/>
<circle cx="544.339" cy="544.591" r="3.31752" fill="#A00B31" fill-opacity="0.64"/>
<circle cx="424.222" cy="384.503" r="3.31752" fill="#A00B31" fill-opacity="0.64"/>
<circle cx="749.476" cy="234.911" r="3.31752" fill="#A00B31" fill-opacity="0.64"/>
<circle cx="619.553" cy="527.053" r="3.31752" fill="#A00B31" fill-opacity="0.64"/>
<circle cx="458.558" cy="712.469" r="3.31752" fill="#A00B31" fill-opacity="0.64"/>
<circle cx="544.339" cy="55.9914" r="6.84413" fill="#A00B31" fill-opacity="0.64"/>
<circle cx="495.016" cy="478.036" r="10.4024" fill="#A00B31" fill-opacity="0.64"/>
<circle cx="735.756" cy="336.861" r="10.4024" fill="#A00B31" fill-opacity="0.64"/>
<circle cx="573.777" cy="252.157" r="10.4024" fill="#A00B31" fill-opacity="0.64"/>
<circle cx="515.821" cy="602.864" r="10.4024" fill="#A00B31" fill-opacity="0.64"/>
<circle cx="725.354" cy="684.597" r="10.4024" fill="#A00B31" fill-opacity="0.64"/>
<circle cx="42.4039" cy="176.239" r="10.4024" transform="rotate(-180 42.4039 176.239)" fill="#A00B31" fill-opacity="0.64"/>
<circle cx="152.004" cy="301.067" r="6.84413" transform="rotate(-180 152.004 301.067)" fill="#A00B31" fill-opacity="0.64"/>
<circle cx="158.848" cy="165.837" r="6.84413" transform="rotate(-180 158.848 165.837)" fill="#A00B31" fill-opacity="0.64"/>
<circle cx="350.652" cy="210.39" r="6.84413" transform="rotate(-180 350.652 210.39)" fill="#A00B31" fill-opacity="0.64"/>
<circle cx="190.563" cy="414.593" r="6.84413" transform="rotate(-180 190.563 414.593)" fill="#A00B31" fill-opacity="0.64"/>
<circle cx="364.34" cy="516.544" r="6.84413" transform="rotate(-180 364.34 516.544)" fill="#A00B31" fill-opacity="0.64"/>
<circle cx="66.7668" cy="656.999" r="6.84413" transform="rotate(-180 66.7668 656.999)" fill="#A00B31" fill-opacity="0.64"/>
<circle cx="114.34" cy="557.322" r="3.31752" transform="rotate(-180 114.34 557.322)" fill="#A00B31" fill-opacity="0.64"/>
<circle cx="207.701" cy="626.793" r="3.31752" transform="rotate(-180 207.701 626.793)" fill="#A00B31" fill-opacity="0.64"/>
<circle cx="314.93" cy="467.46" r="3.31752" transform="rotate(-180 314.93 467.46)" fill="#A00B31" fill-opacity="0.64"/>
<circle cx="247.75" cy="343.618" r="3.31752" transform="rotate(-180 247.75 343.618)" fill="#A00B31" fill-opacity="0.64"/>
<circle cx="66.7667" cy="283.581" r="3.31752" transform="rotate(-180 66.7667 283.581)" fill="#A00B31" fill-opacity="0.64"/>
<circle cx="244.223" cy="213.707" r="3.31752" transform="rotate(-180 244.223 213.707)" fill="#A00B31" fill-opacity="0.64"/>
<circle cx="364.34" cy="373.796" r="3.31752" transform="rotate(-180 364.34 373.796)" fill="#A00B31" fill-opacity="0.64"/>
<circle cx="39.0863" cy="523.388" r="3.31752" transform="rotate(-180 39.0863 523.388)" fill="#A00B31" fill-opacity="0.64"/>
<circle cx="169.009" cy="231.245" r="3.31752" transform="rotate(-180 169.009 231.245)" fill="#A00B31" fill-opacity="0.64"/>
<circle cx="330.004" cy="45.8299" r="3.31752" transform="rotate(-180 330.004 45.8299)" fill="#A00B31" fill-opacity="0.64"/>
<circle cx="244.223" cy="702.307" r="6.84413" transform="rotate(-180 244.223 702.307)" fill="#A00B31" fill-opacity="0.64"/>
<circle cx="293.546" cy="280.263" r="10.4024" transform="rotate(-180 293.546 280.263)" fill="#A00B31" fill-opacity="0.64"/>
<circle cx="52.8063" cy="421.438" r="10.4024" transform="rotate(-180 52.8063 421.438)" fill="#A00B31" fill-opacity="0.64"/>
<circle cx="214.786" cy="506.142" r="10.4024" transform="rotate(-180 214.786 506.142)" fill="#A00B31" fill-opacity="0.64"/>
<circle cx="272.742" cy="155.435" r="10.4024" transform="rotate(-180 272.742 155.435)" fill="#A00B31" fill-opacity="0.64"/>
<circle cx="63.2086" cy="73.7019" r="10.4024" transform="rotate(-180 63.2086 73.7019)" fill="#A00B31" fill-opacity="0.64"/>
<circle cx="414.588" cy="1133.21" r="10.4024" transform="rotate(-180 414.588 1133.21)" fill="#A00B31" fill-opacity="0.64"/>
<circle cx="524.188" cy="1258.04" r="6.84413" transform="rotate(-180 524.188 1258.04)" fill="#A00B31" fill-opacity="0.64"/>
<circle cx="531.032" cy="1122.81" r="6.84413" transform="rotate(-180 531.032 1122.81)" fill="#A00B31" fill-opacity="0.64"/>
<circle cx="722.836" cy="1167.36" r="6.84413" transform="rotate(-180 722.836 1167.36)" fill="#A00B31" fill-opacity="0.64"/>
<circle cx="562.747" cy="1371.57" r="6.84413" transform="rotate(-180 562.747 1371.57)" fill="#A00B31" fill-opacity="0.64"/>
<circle cx="736.524" cy="1473.52" r="6.84413" transform="rotate(-180 736.524 1473.52)" fill="#A00B31" fill-opacity="0.64"/>
<circle cx="438.951" cy="1613.97" r="6.84413" transform="rotate(-180 438.951 1613.97)" fill="#A00B31" fill-opacity="0.64"/>
<circle cx="486.524" cy="1514.3" r="3.31752" transform="rotate(-180 486.524 1514.3)" fill="#A00B31" fill-opacity="0.64"/>
<circle cx="579.885" cy="1583.77" r="3.31752" transform="rotate(-180 579.885 1583.77)" fill="#A00B31" fill-opacity="0.64"/>
<circle cx="687.114" cy="1424.43" r="3.31752" transform="rotate(-180 687.114 1424.43)" fill="#A00B31" fill-opacity="0.64"/>
<circle cx="619.933" cy="1300.59" r="3.31752" transform="rotate(-180 619.933 1300.59)" fill="#A00B31" fill-opacity="0.64"/>
<circle cx="438.951" cy="1240.55" r="3.31752" transform="rotate(-180 438.951 1240.55)" fill="#A00B31" fill-opacity="0.64"/>
<circle cx="616.407" cy="1170.68" r="3.31752" transform="rotate(-180 616.407 1170.68)" fill="#A00B31" fill-opacity="0.64"/>
<circle cx="736.524" cy="1330.77" r="3.31752" transform="rotate(-180 736.524 1330.77)" fill="#A00B31" fill-opacity="0.64"/>
<circle cx="411.27" cy="1480.36" r="3.31752" transform="rotate(-180 411.27 1480.36)" fill="#A00B31" fill-opacity="0.64"/>
<circle cx="541.193" cy="1188.22" r="3.31752" transform="rotate(-180 541.193 1188.22)" fill="#A00B31" fill-opacity="0.64"/>
<circle cx="702.188" cy="1002.8" r="3.31752" transform="rotate(-180 702.188 1002.8)" fill="#A00B31" fill-opacity="0.64"/>
<circle cx="616.407" cy="1659.28" r="6.84413" transform="rotate(-180 616.407 1659.28)" fill="#A00B31" fill-opacity="0.64"/>
<circle cx="665.73" cy="1237.24" r="10.4024" transform="rotate(-180 665.73 1237.24)" fill="#A00B31" fill-opacity="0.64"/>
<circle cx="424.99" cy="1378.41" r="10.4024" transform="rotate(-180 424.99 1378.41)" fill="#A00B31" fill-opacity="0.64"/>
<circle cx="586.97" cy="1463.12" r="10.4024" transform="rotate(-180 586.97 1463.12)" fill="#A00B31" fill-opacity="0.64"/>
<circle cx="644.926" cy="1112.41" r="10.4024" transform="rotate(-180 644.926 1112.41)" fill="#A00B31" fill-opacity="0.64"/>
<circle cx="435.393" cy="1030.68" r="10.4024" transform="rotate(-180 435.393 1030.68)" fill="#A00B31" fill-opacity="0.64"/>
<circle cx="593.393" cy="1556.97" r="10.4024" transform="rotate(-90 593.393 1556.97)" fill="#A00B31" fill-opacity="0.64"/>
<circle cx="468.565" cy="1666.57" r="6.84413" transform="rotate(-90 468.565 1666.57)" fill="#A00B31" fill-opacity="0.64"/>
<circle cx="603.795" cy="1673.42" r="6.84413" transform="rotate(-90 603.795 1673.42)" fill="#A00B31" fill-opacity="0.64"/>
<circle cx="559.242" cy="1865.22" r="6.84413" transform="rotate(-90 559.242 1865.22)" fill="#A00B31" fill-opacity="0.64"/>
<circle cx="355.039" cy="1705.13" r="6.84413" transform="rotate(-90 355.039 1705.13)" fill="#A00B31" fill-opacity="0.64"/>
<circle cx="253.089" cy="1878.91" r="6.84413" transform="rotate(-90 253.089 1878.91)" fill="#A00B31" fill-opacity="0.64"/>
<circle cx="112.633" cy="1581.34" r="6.84413" transform="rotate(-90 112.633 1581.34)" fill="#A00B31" fill-opacity="0.64"/>
<circle cx="212.311" cy="1628.91" r="3.31752" transform="rotate(-90 212.311 1628.91)" fill="#A00B31" fill-opacity="0.64"/>
<circle cx="142.839" cy="1722.27" r="3.31752" transform="rotate(-90 142.839 1722.27)" fill="#A00B31" fill-opacity="0.64"/>
<circle cx="302.172" cy="1829.5" r="3.31752" transform="rotate(-90 302.172 1829.5)" fill="#A00B31" fill-opacity="0.64"/>
<circle cx="426.014" cy="1762.32" r="3.31752" transform="rotate(-90 426.014 1762.32)" fill="#A00B31" fill-opacity="0.64"/>
<circle cx="486.052" cy="1581.34" r="3.31752" transform="rotate(-90 486.052 1581.34)" fill="#A00B31" fill-opacity="0.64"/>
<circle cx="555.925" cy="1758.79" r="3.31752" transform="rotate(-90 555.925 1758.79)" fill="#A00B31" fill-opacity="0.64"/>
<circle cx="395.837" cy="1878.91" r="3.31752" transform="rotate(-90 395.837 1878.91)" fill="#A00B31" fill-opacity="0.64"/>
<circle cx="246.244" cy="1553.66" r="3.31752" transform="rotate(-90 246.244 1553.66)" fill="#A00B31" fill-opacity="0.64"/>
<circle cx="538.387" cy="1683.58" r="3.31752" transform="rotate(-90 538.387 1683.58)" fill="#A00B31" fill-opacity="0.64"/>
<circle cx="723.802" cy="1844.57" r="3.31752" transform="rotate(-90 723.802 1844.57)" fill="#A00B31" fill-opacity="0.64"/>
<circle cx="67.3255" cy="1758.79" r="6.84413" transform="rotate(-90 67.3255 1758.79)" fill="#A00B31" fill-opacity="0.64"/>
<circle cx="489.37" cy="1808.12" r="10.4024" transform="rotate(-90 489.37 1808.12)" fill="#A00B31" fill-opacity="0.64"/>
<circle cx="348.195" cy="1567.38" r="10.4024" transform="rotate(-90 348.195 1567.38)" fill="#A00B31" fill-opacity="0.64"/>
<circle cx="263.491" cy="1729.36" r="10.4024" transform="rotate(-90 263.491 1729.36)" fill="#A00B31" fill-opacity="0.64"/>
<circle cx="614.198" cy="1787.31" r="10.4024" transform="rotate(-90 614.198 1787.31)" fill="#A00B31" fill-opacity="0.64"/>
<circle cx="695.931" cy="1577.78" r="10.4024" transform="rotate(-90 695.931 1577.78)" fill="#A00B31" fill-opacity="0.64"/>
<circle cx="614.18" cy="1979.75" r="10.4024" transform="rotate(-90 614.18 1979.75)" fill="#A00B31" fill-opacity="0.64"/>
<circle cx="489.352" cy="2089.35" r="6.84413" transform="rotate(-90 489.352 2089.35)" fill="#A00B31" fill-opacity="0.64"/>
<circle cx="624.582" cy="2096.2" r="6.84413" transform="rotate(-90 624.582 2096.2)" fill="#A00B31" fill-opacity="0.64"/>
<circle cx="580.029" cy="2288" r="6.84413" transform="rotate(-90 580.029 2288)" fill="#A00B31" fill-opacity="0.64"/>
<circle cx="375.826" cy="2127.91" r="6.84413" transform="rotate(-90 375.826 2127.91)" fill="#A00B31" fill-opacity="0.64"/>
<circle cx="273.876" cy="2301.69" r="6.84413" transform="rotate(-90 273.876 2301.69)" fill="#A00B31" fill-opacity="0.64"/>
<circle cx="133.421" cy="2004.12" r="6.84413" transform="rotate(-90 133.421 2004.12)" fill="#A00B31" fill-opacity="0.64"/>
<circle cx="233.098" cy="2051.69" r="3.31752" transform="rotate(-90 233.098 2051.69)" fill="#A00B31" fill-opacity="0.64"/>
<circle cx="163.626" cy="2145.05" r="3.31752" transform="rotate(-90 163.626 2145.05)" fill="#A00B31" fill-opacity="0.64"/>
<circle cx="322.959" cy="2252.28" r="3.31752" transform="rotate(-90 322.959 2252.28)" fill="#A00B31" fill-opacity="0.64"/>
<circle cx="446.801" cy="2185.1" r="3.31752" transform="rotate(-90 446.801 2185.1)" fill="#A00B31" fill-opacity="0.64"/>
<circle cx="506.839" cy="2004.12" r="3.31752" transform="rotate(-90 506.839 2004.12)" fill="#A00B31" fill-opacity="0.64"/>
<circle cx="576.712" cy="2181.57" r="3.31752" transform="rotate(-90 576.712 2181.57)" fill="#A00B31" fill-opacity="0.64"/>
<circle cx="416.624" cy="2301.69" r="3.31752" transform="rotate(-90 416.624 2301.69)" fill="#A00B31" fill-opacity="0.64"/>
<circle cx="267.031" cy="1976.44" r="3.31752" transform="rotate(-90 267.031 1976.44)" fill="#A00B31" fill-opacity="0.64"/>
<circle cx="559.174" cy="2106.36" r="3.31752" transform="rotate(-90 559.174 2106.36)" fill="#A00B31" fill-opacity="0.64"/>
<circle cx="744.59" cy="2267.35" r="3.31752" transform="rotate(-90 744.59 2267.35)" fill="#A00B31" fill-opacity="0.64"/>
<circle cx="88.1125" cy="2181.57" r="6.84413" transform="rotate(-90 88.1125 2181.57)" fill="#A00B31" fill-opacity="0.64"/>
<circle cx="510.157" cy="2230.9" r="10.4024" transform="rotate(-90 510.157 2230.9)" fill="#A00B31" fill-opacity="0.64"/>
<circle cx="368.982" cy="1990.16" r="10.4024" transform="rotate(-90 368.982 1990.16)" fill="#A00B31" fill-opacity="0.64"/>
<circle cx="284.278" cy="2152.14" r="10.4024" transform="rotate(-90 284.278 2152.14)" fill="#A00B31" fill-opacity="0.64"/>
<circle cx="634.985" cy="2210.09" r="10.4024" transform="rotate(-90 634.985 2210.09)" fill="#A00B31" fill-opacity="0.64"/>
<circle cx="716.718" cy="2000.56" r="10.4024" transform="rotate(-90 716.718 2000.56)" fill="#A00B31" fill-opacity="0.64"/>
<circle cx="46.5892" cy="930.063" r="10.4024" transform="rotate(-180 46.5892 930.063)" fill="#A00B31" fill-opacity="0.64"/>
<circle cx="156.189" cy="1054.89" r="6.84413" transform="rotate(-180 156.189 1054.89)" fill="#A00B31" fill-opacity="0.64"/>
<circle cx="163.033" cy="919.661" r="6.84413" transform="rotate(-180 163.033 919.661)" fill="#A00B31" fill-opacity="0.64"/>
<circle cx="354.837" cy="964.214" r="6.84413" transform="rotate(-180 354.837 964.214)" fill="#A00B31" fill-opacity="0.64"/>
<circle cx="194.749" cy="1168.42" r="6.84413" transform="rotate(-180 194.749 1168.42)" fill="#A00B31" fill-opacity="0.64"/>
<circle cx="368.525" cy="1270.37" r="6.84413" transform="rotate(-180 368.525 1270.37)" fill="#A00B31" fill-opacity="0.64"/>
<circle cx="70.9521" cy="1410.82" r="6.84413" transform="rotate(-180 70.9521 1410.82)" fill="#A00B31" fill-opacity="0.64"/>
<circle cx="118.526" cy="1311.14" r="3.31752" transform="rotate(-180 118.526 1311.14)" fill="#A00B31" fill-opacity="0.64"/>
<circle cx="211.886" cy="1380.62" r="3.31752" transform="rotate(-180 211.886 1380.62)" fill="#A00B31" fill-opacity="0.64"/>
<circle cx="319.115" cy="1221.28" r="3.31752" transform="rotate(-180 319.115 1221.28)" fill="#A00B31" fill-opacity="0.64"/>
<circle cx="251.935" cy="1097.44" r="3.31752" transform="rotate(-180 251.935 1097.44)" fill="#A00B31" fill-opacity="0.64"/>
<circle cx="70.952" cy="1037.4" r="3.31752" transform="rotate(-180 70.952 1037.4)" fill="#A00B31" fill-opacity="0.64"/>
<circle cx="248.408" cy="967.531" r="3.31752" transform="rotate(-180 248.408 967.531)" fill="#A00B31" fill-opacity="0.64"/>
<circle cx="368.525" cy="1127.62" r="3.31752" transform="rotate(-180 368.525 1127.62)" fill="#A00B31" fill-opacity="0.64"/>
<circle cx="43.2716" cy="1277.21" r="3.31752" transform="rotate(-180 43.2716 1277.21)" fill="#A00B31" fill-opacity="0.64"/>
<circle cx="173.195" cy="985.069" r="3.31752" transform="rotate(-180 173.195 985.069)" fill="#A00B31" fill-opacity="0.64"/>
<circle cx="334.19" cy="799.653" r="3.31752" transform="rotate(-180 334.19 799.653)" fill="#A00B31" fill-opacity="0.64"/>
<circle cx="248.408" cy="1456.13" r="6.84413" transform="rotate(-180 248.408 1456.13)" fill="#A00B31" fill-opacity="0.64"/>
<circle cx="297.732" cy="1034.09" r="10.4024" transform="rotate(-180 297.732 1034.09)" fill="#A00B31" fill-opacity="0.64"/>
<circle cx="56.9916" cy="1175.26" r="10.4024" transform="rotate(-180 56.9916 1175.26)" fill="#A00B31" fill-opacity="0.64"/>
<circle cx="218.971" cy="1259.97" r="10.4024" transform="rotate(-180 218.971 1259.97)" fill="#A00B31" fill-opacity="0.64"/>
<circle cx="276.927" cy="909.258" r="10.4024" transform="rotate(-180 276.927 909.258)" fill="#A00B31" fill-opacity="0.64"/>
<circle cx="67.3939" cy="827.525" r="10.4024" transform="rotate(-180 67.3939 827.525)" fill="#A00B31" fill-opacity="0.64"/>
<path d="M451.888 664.857C417.688 762.892 439.039 693.602 449.373 663.979C459.707 634.357 461.556 637.438 451.888 664.857Z" fill="url(#paint2_linear_200_55)" fill-opacity="0.47"/>
<path d="M660.224 628.248C626.024 726.284 647.375 656.993 657.709 627.371C668.043 597.748 669.892 600.83 660.224 628.248Z" fill="url(#paint3_linear_200_55)" fill-opacity="0.47"/>
<path d="M653.876 863.773C619.676 961.808 641.026 892.518 651.36 862.895C661.694 833.273 663.544 836.354 653.876 863.773Z" fill="url(#paint4_linear_200_55)" fill-opacity="0.47"/>
<path d="M488.604 854.426C454.404 952.461 475.754 883.171 486.088 853.549C496.422 823.926 498.271 827.008 488.604 854.426Z" fill="url(#paint5_linear_200_55)" fill-opacity="0.47"/>
<path d="M712.165 985.165C677.965 1083.2 699.315 1013.91 709.649 984.288C719.983 954.665 721.833 957.747 712.165 985.165Z" fill="url(#paint6_linear_200_55)" fill-opacity="0.47"/>
<path d="M574.734 856.085C557.501 905.484 570.795 871.454 576.002 856.527C581.209 841.6 579.514 842.237 574.734 856.085Z" fill="url(#paint7_linear_200_55)" fill-opacity="0.47"/>
<path d="M396.886 610.268C379.653 659.667 390.412 624.752 395.619 609.825C400.826 594.899 401.758 596.452 396.886 610.268Z" fill="url(#paint8_linear_200_55)" fill-opacity="0.47"/>
<path d="M158.179 149.119C123.979 247.154 145.33 177.864 155.664 148.241C165.998 118.619 167.847 121.701 158.179 149.119Z" fill="url(#paint9_linear_200_55)" fill-opacity="0.47"/>
<path d="M366.515 112.511C332.315 210.546 353.666 141.256 364 111.633C374.334 82.0105 376.183 85.0922 366.515 112.511Z" fill="url(#paint10_linear_200_55)" fill-opacity="0.47"/>
<path d="M360.167 348.035C325.967 446.07 347.317 376.78 357.651 347.157C367.985 317.535 369.835 320.616 360.167 348.035Z" fill="url(#paint11_linear_200_55)" fill-opacity="0.47"/>
<path d="M194.895 338.688C160.695 436.724 182.045 367.433 192.379 337.811C202.713 308.188 204.562 311.27 194.895 338.688Z" fill="url(#paint12_linear_200_55)" fill-opacity="0.47"/>
<path d="M418.456 469.428C384.256 567.463 405.606 498.173 415.94 468.55C426.274 438.927 428.124 442.009 418.456 469.428Z" fill="url(#paint13_linear_200_55)" fill-opacity="0.47"/>
<path d="M281.025 340.347C263.792 389.747 277.086 355.716 282.293 340.79C287.5 325.863 285.805 326.499 281.025 340.347Z" fill="url(#paint14_linear_200_55)" fill-opacity="0.47"/>
<path d="M103.177 94.5298C85.9441 143.929 96.7026 109.014 101.91 94.0876C107.117 79.161 108.049 80.7138 103.177 94.5298Z" fill="url(#paint15_linear_200_55)" fill-opacity="0.47"/>
<path d="M485.048 235.567C450.847 333.602 472.198 264.312 482.532 234.689C492.866 205.067 494.715 208.148 485.048 235.567Z" fill="url(#paint16_linear_200_55)" fill-opacity="0.47"/>
<path d="M693.384 198.958C659.184 296.994 680.534 227.703 690.868 198.081C701.202 168.458 703.051 171.54 693.384 198.958Z" fill="url(#paint17_linear_200_55)" fill-opacity="0.47"/>
<path d="M687.035 434.483C652.835 532.518 674.186 463.228 684.52 433.605C694.854 403.983 696.703 407.064 687.035 434.483Z" fill="url(#paint18_linear_200_55)" fill-opacity="0.47"/>
<path d="M521.763 425.136C487.563 523.171 508.914 453.881 519.248 424.259C529.582 394.636 531.431 397.718 521.763 425.136Z" fill="url(#paint19_linear_200_55)" fill-opacity="0.47"/>
<path d="M745.324 555.875C711.124 653.911 732.475 584.62 742.809 554.998C753.143 525.375 754.992 528.457 745.324 555.875Z" fill="url(#paint20_linear_200_55)" fill-opacity="0.47"/>
<path d="M607.894 426.795C590.66 476.194 603.954 442.164 609.161 427.237C614.369 412.31 612.673 412.947 607.894 426.795Z" fill="url(#paint21_linear_200_55)" fill-opacity="0.47"/>
<path d="M430.046 180.978C412.812 230.377 423.571 195.462 428.778 180.535C433.985 165.609 434.917 167.162 430.046 180.978Z" fill="url(#paint22_linear_200_55)" fill-opacity="0.47"/>
<path d="M95.2805 1517.43C61.0803 1615.47 82.4309 1546.18 92.7649 1516.56C103.099 1486.93 104.948 1490.02 95.2805 1517.43Z" fill="url(#paint23_linear_200_55)" fill-opacity="0.47"/>
<path d="M303.617 1480.83C269.416 1578.86 290.767 1509.57 301.101 1479.95C311.435 1450.33 313.284 1453.41 303.617 1480.83Z" fill="url(#paint24_linear_200_55)" fill-opacity="0.47"/>
<path d="M297.268 1716.35C263.068 1814.39 284.419 1745.1 294.753 1715.47C305.087 1685.85 306.936 1688.93 297.268 1716.35Z" fill="url(#paint25_linear_200_55)" fill-opacity="0.47"/>
<path d="M131.996 1707C97.7958 1805.04 119.146 1735.75 129.48 1706.13C139.814 1676.5 141.664 1679.59 131.996 1707Z" fill="url(#paint26_linear_200_55)" fill-opacity="0.47"/>
<path d="M355.557 1837.74C321.357 1935.78 342.708 1866.49 353.042 1836.87C363.376 1807.24 365.225 1810.33 355.557 1837.74Z" fill="url(#paint27_linear_200_55)" fill-opacity="0.47"/>
<path d="M218.126 1708.66C200.893 1758.06 214.187 1724.03 219.394 1709.11C224.601 1694.18 222.906 1694.81 218.126 1708.66Z" fill="url(#paint28_linear_200_55)" fill-opacity="0.47"/>
<path d="M40.2786 1462.85C23.0453 1512.25 33.8038 1477.33 39.0111 1462.4C44.2183 1447.48 45.1502 1449.03 40.2786 1462.85Z" fill="url(#paint29_linear_200_55)" fill-opacity="0.47"/>
<path d="M436.165 1952.82C401.965 2050.86 423.316 1981.57 433.65 1951.95C443.984 1922.32 445.833 1925.41 436.165 1952.82Z" fill="url(#paint30_linear_200_55)" fill-opacity="0.47"/>
<path d="M644.501 1916.22C610.301 2014.25 631.652 1944.96 641.986 1915.34C652.32 1885.72 654.169 1888.8 644.501 1916.22Z" fill="url(#paint31_linear_200_55)" fill-opacity="0.47"/>
<path d="M638.153 2151.74C603.953 2249.78 625.303 2180.49 635.637 2150.86C645.971 2121.24 647.821 2124.32 638.153 2151.74Z" fill="url(#paint32_linear_200_55)" fill-opacity="0.47"/>
<path d="M472.881 2142.39C438.681 2240.43 460.031 2171.14 470.365 2141.52C480.699 2111.89 482.549 2114.98 472.881 2142.39Z" fill="url(#paint33_linear_200_55)" fill-opacity="0.47"/>
<path d="M696.442 2273.13C662.242 2371.17 683.592 2301.88 693.926 2272.26C704.26 2242.63 706.11 2245.71 696.442 2273.13Z" fill="url(#paint34_linear_200_55)" fill-opacity="0.47"/>
<path d="M559.011 2144.05C541.778 2193.45 555.072 2159.42 560.279 2144.49C565.486 2129.57 563.791 2130.2 559.011 2144.05Z" fill="url(#paint35_linear_200_55)" fill-opacity="0.47"/>
<path d="M381.163 1898.24C363.93 1947.63 374.689 1912.72 379.896 1897.79C385.103 1882.87 386.035 1884.42 381.163 1898.24Z" fill="url(#paint36_linear_200_55)" fill-opacity="0.47"/>
<defs>
<linearGradient id="paint0_linear_200_55" x1="41.3023" y1="803.531" x2="207.215" y2="-75.0536" gradientUnits="userSpaceOnUse">
<stop offset="0.254808" stop-color="#920B43"/>
<stop offset="0.884615" stop-color="#E92045"/>
<stop offset="0.980769" stop-color="#B40A68"/>
</linearGradient>
<linearGradient id="paint1_linear_200_55" x1="604.658" y1="880" x2="547.671" y2="2510.84" gradientUnits="userSpaceOnUse">
<stop offset="0.163523" stop-color="#920B43"/>
<stop offset="0.57238" stop-color="#E92045"/>
<stop offset="0.980769" stop-color="#B40A68"/>
</linearGradient>
<linearGradient id="paint2_linear_200_55" x1="432.865" y1="715.347" x2="458.101" y2="643.008" gradientUnits="userSpaceOnUse">
<stop stop-color="white" stop-opacity="0"/>
<stop offset="1" stop-color="white"/>
</linearGradient>
<linearGradient id="paint3_linear_200_55" x1="641.201" y1="678.739" x2="666.437" y2="606.4" gradientUnits="userSpaceOnUse">
<stop stop-color="white" stop-opacity="0"/>
<stop offset="1" stop-color="white"/>
</linearGradient>
<linearGradient id="paint4_linear_200_55" x1="634.853" y1="914.263" x2="660.088" y2="841.924" gradientUnits="userSpaceOnUse">
<stop stop-color="white" stop-opacity="0"/>
<stop offset="1" stop-color="white"/>
</linearGradient>
<linearGradient id="paint5_linear_200_55" x1="469.58" y1="904.916" x2="494.816" y2="832.578" gradientUnits="userSpaceOnUse">
<stop stop-color="white" stop-opacity="0"/>
<stop offset="1" stop-color="white"/>
</linearGradient>
<linearGradient id="paint6_linear_200_55" x1="693.142" y1="1035.66" x2="718.377" y2="963.317" gradientUnits="userSpaceOnUse">
<stop stop-color="white" stop-opacity="0"/>
<stop offset="1" stop-color="white"/>
</linearGradient>
<linearGradient id="paint7_linear_200_55" x1="566.415" y1="881.968" x2="579.131" y2="845.517" gradientUnits="userSpaceOnUse">
<stop stop-color="white" stop-opacity="0"/>
<stop offset="1" stop-color="white"/>
</linearGradient>
<linearGradient id="paint8_linear_200_55" x1="387.301" y1="635.709" x2="400.017" y2="599.258" gradientUnits="userSpaceOnUse">
<stop stop-color="white" stop-opacity="0"/>
<stop offset="1" stop-color="white"/>
</linearGradient>
<linearGradient id="paint9_linear_200_55" x1="139.156" y1="199.609" x2="164.392" y2="127.271" gradientUnits="userSpaceOnUse">
<stop stop-color="white" stop-opacity="0"/>
<stop offset="1" stop-color="white"/>
</linearGradient>
<linearGradient id="paint10_linear_200_55" x1="347.492" y1="163.001" x2="372.728" y2="90.6621" gradientUnits="userSpaceOnUse">
<stop stop-color="white" stop-opacity="0"/>
<stop offset="1" stop-color="white"/>
</linearGradient>
<linearGradient id="paint11_linear_200_55" x1="341.144" y1="398.525" x2="366.379" y2="326.186" gradientUnits="userSpaceOnUse">
<stop stop-color="white" stop-opacity="0"/>
<stop offset="1" stop-color="white"/>
</linearGradient>
<linearGradient id="paint12_linear_200_55" x1="175.871" y1="389.178" x2="201.107" y2="316.84" gradientUnits="userSpaceOnUse">
<stop stop-color="white" stop-opacity="0"/>
<stop offset="1" stop-color="white"/>
</linearGradient>
<linearGradient id="paint13_linear_200_55" x1="399.433" y1="519.918" x2="424.668" y2="447.579" gradientUnits="userSpaceOnUse">
<stop stop-color="white" stop-opacity="0"/>
<stop offset="1" stop-color="white"/>
</linearGradient>
<linearGradient id="paint14_linear_200_55" x1="272.706" y1="366.231" x2="285.422" y2="329.78" gradientUnits="userSpaceOnUse">
<stop stop-color="white" stop-opacity="0"/>
<stop offset="1" stop-color="white"/>
</linearGradient>
<linearGradient id="paint15_linear_200_55" x1="93.5916" y1="119.972" x2="106.308" y2="83.5205" gradientUnits="userSpaceOnUse">
<stop stop-color="white" stop-opacity="0"/>
<stop offset="1" stop-color="white"/>
</linearGradient>
<linearGradient id="paint16_linear_200_55" x1="466.024" y1="286.057" x2="491.26" y2="213.718" gradientUnits="userSpaceOnUse">
<stop stop-color="white" stop-opacity="0"/>
<stop offset="1" stop-color="white"/>
</linearGradient>
<linearGradient id="paint17_linear_200_55" x1="674.36" y1="249.448" x2="699.596" y2="177.11" gradientUnits="userSpaceOnUse">
<stop stop-color="white" stop-opacity="0"/>
<stop offset="1" stop-color="white"/>
</linearGradient>
<linearGradient id="paint18_linear_200_55" x1="668.012" y1="484.973" x2="693.248" y2="412.634" gradientUnits="userSpaceOnUse">
<stop stop-color="white" stop-opacity="0"/>
<stop offset="1" stop-color="white"/>
</linearGradient>
<linearGradient id="paint19_linear_200_55" x1="502.74" y1="475.626" x2="527.976" y2="403.288" gradientUnits="userSpaceOnUse">
<stop stop-color="white" stop-opacity="0"/>
<stop offset="1" stop-color="white"/>
</linearGradient>
<linearGradient id="paint20_linear_200_55" x1="726.301" y1="606.365" x2="751.537" y2="534.027" gradientUnits="userSpaceOnUse">
<stop stop-color="white" stop-opacity="0"/>
<stop offset="1" stop-color="white"/>
</linearGradient>
<linearGradient id="paint21_linear_200_55" x1="599.574" y1="452.678" x2="612.29" y2="416.227" gradientUnits="userSpaceOnUse">
<stop stop-color="white" stop-opacity="0"/>
<stop offset="1" stop-color="white"/>
</linearGradient>
<linearGradient id="paint22_linear_200_55" x1="420.46" y1="206.419" x2="433.176" y2="169.968" gradientUnits="userSpaceOnUse">
<stop stop-color="white" stop-opacity="0"/>
<stop offset="1" stop-color="white"/>
</linearGradient>
<linearGradient id="paint23_linear_200_55" x1="76.2572" y1="1567.93" x2="101.493" y2="1495.59" gradientUnits="userSpaceOnUse">
<stop stop-color="white" stop-opacity="0"/>
<stop offset="1" stop-color="white"/>
</linearGradient>
<linearGradient id="paint24_linear_200_55" x1="284.593" y1="1531.32" x2="309.829" y2="1458.98" gradientUnits="userSpaceOnUse">
<stop stop-color="white" stop-opacity="0"/>
<stop offset="1" stop-color="white"/>
</linearGradient>
<linearGradient id="paint25_linear_200_55" x1="278.245" y1="1766.84" x2="303.481" y2="1694.5" gradientUnits="userSpaceOnUse">
<stop stop-color="white" stop-opacity="0"/>
<stop offset="1" stop-color="white"/>
</linearGradient>
<linearGradient id="paint26_linear_200_55" x1="112.973" y1="1757.49" x2="138.208" y2="1685.16" gradientUnits="userSpaceOnUse">
<stop stop-color="white" stop-opacity="0"/>
<stop offset="1" stop-color="white"/>
</linearGradient>
<linearGradient id="paint27_linear_200_55" x1="336.534" y1="1888.23" x2="361.77" y2="1815.9" gradientUnits="userSpaceOnUse">
<stop stop-color="white" stop-opacity="0"/>
<stop offset="1" stop-color="white"/>
</linearGradient>
<linearGradient id="paint28_linear_200_55" x1="209.807" y1="1734.55" x2="222.523" y2="1698.1" gradientUnits="userSpaceOnUse">
<stop stop-color="white" stop-opacity="0"/>
<stop offset="1" stop-color="white"/>
</linearGradient>
<linearGradient id="paint29_linear_200_55" x1="30.6929" y1="1488.29" x2="43.4091" y2="1451.84" gradientUnits="userSpaceOnUse">
<stop stop-color="white" stop-opacity="0"/>
<stop offset="1" stop-color="white"/>
</linearGradient>
<linearGradient id="paint30_linear_200_55" x1="417.142" y1="2003.31" x2="442.378" y2="1930.98" gradientUnits="userSpaceOnUse">
<stop stop-color="white" stop-opacity="0"/>
<stop offset="1" stop-color="white"/>
</linearGradient>
<linearGradient id="paint31_linear_200_55" x1="625.478" y1="1966.71" x2="650.714" y2="1894.37" gradientUnits="userSpaceOnUse">
<stop stop-color="white" stop-opacity="0"/>
<stop offset="1" stop-color="white"/>
</linearGradient>
<linearGradient id="paint32_linear_200_55" x1="619.13" y1="2202.23" x2="644.365" y2="2129.89" gradientUnits="userSpaceOnUse">
<stop stop-color="white" stop-opacity="0"/>
<stop offset="1" stop-color="white"/>
</linearGradient>
<linearGradient id="paint33_linear_200_55" x1="453.857" y1="2192.88" x2="479.093" y2="2120.55" gradientUnits="userSpaceOnUse">
<stop stop-color="white" stop-opacity="0"/>
<stop offset="1" stop-color="white"/>
</linearGradient>
<linearGradient id="paint34_linear_200_55" x1="677.419" y1="2323.62" x2="702.654" y2="2251.28" gradientUnits="userSpaceOnUse">
<stop stop-color="white" stop-opacity="0"/>
<stop offset="1" stop-color="white"/>
</linearGradient>
<linearGradient id="paint35_linear_200_55" x1="550.692" y1="2169.94" x2="563.408" y2="2133.49" gradientUnits="userSpaceOnUse">
<stop stop-color="white" stop-opacity="0"/>
<stop offset="1" stop-color="white"/>
</linearGradient>
<linearGradient id="paint36_linear_200_55" x1="371.578" y1="1923.68" x2="384.294" y2="1887.23" gradientUnits="userSpaceOnUse">
<stop stop-color="white" stop-opacity="0"/>
<stop offset="1" stop-color="white"/>
</linearGradient>
</defs>
</svg>
