<svg width="800" height="2367" viewBox="0 0 800 2367" fill="none" xmlns="http://www.w3.org/2000/svg">
<g clip-path="url(#clip0_200_347)">
<circle cx="247.655" cy="571.227" r="10.4024" transform="rotate(-180 247.655 571.227)" fill="#FFFBF6" fill-opacity="0.22"/>
<circle cx="357.255" cy="696.055" r="6.84413" transform="rotate(-180 357.255 696.055)" fill="#FFFBF6" fill-opacity="0.22"/>
<circle cx="364.099" cy="560.825" r="6.84413" transform="rotate(-180 364.099 560.825)" fill="#FFFBF6" fill-opacity="0.22"/>
<circle cx="555.903" cy="605.378" r="6.84413" transform="rotate(-180 555.903 605.378)" fill="#FFFBF6" fill-opacity="0.22"/>
<circle cx="395.815" cy="809.581" r="6.84413" transform="rotate(-180 395.815 809.581)" fill="#FFFBF6" fill-opacity="0.22"/>
<circle cx="569.591" cy="911.531" r="6.84413" transform="rotate(-180 569.591 911.531)" fill="#FFFBF6" fill-opacity="0.22"/>
<circle cx="272.018" cy="1051.99" r="6.84413" transform="rotate(-180 272.018 1051.99)" fill="#FFFBF6" fill-opacity="0.22"/>
<circle cx="319.592" cy="952.309" r="3.31752" transform="rotate(-180 319.592 952.309)" fill="#FFFBF6" fill-opacity="0.22"/>
<circle cx="412.952" cy="1021.78" r="3.31752" transform="rotate(-180 412.952 1021.78)" fill="#FFFBF6" fill-opacity="0.22"/>
<circle cx="520.181" cy="862.448" r="3.31752" transform="rotate(-180 520.181 862.448)" fill="#FFFBF6" fill-opacity="0.22"/>
<circle cx="453.001" cy="738.606" r="3.31752" transform="rotate(-180 453.001 738.606)" fill="#FFFBF6" fill-opacity="0.22"/>
<circle cx="272.018" cy="678.568" r="3.31752" transform="rotate(-180 272.018 678.568)" fill="#FFFBF6" fill-opacity="0.22"/>
<circle cx="449.474" cy="608.695" r="3.31752" transform="rotate(-180 449.474 608.695)" fill="#FFFBF6" fill-opacity="0.22"/>
<circle cx="569.591" cy="768.783" r="3.31752" transform="rotate(-180 569.591 768.783)" fill="#FFFBF6" fill-opacity="0.22"/>
<circle cx="244.338" cy="918.375" r="3.31752" transform="rotate(-180 244.338 918.375)" fill="#FFFBF6" fill-opacity="0.22"/>
<circle cx="374.261" cy="626.233" r="3.31752" transform="rotate(-180 374.261 626.233)" fill="#FFFBF6" fill-opacity="0.22"/>
<circle cx="535.256" cy="440.818" r="3.31752" transform="rotate(-180 535.256 440.818)" fill="#FFFBF6" fill-opacity="0.22"/>
<circle cx="449.474" cy="1097.29" r="6.84413" transform="rotate(-180 449.474 1097.29)" fill="#FFFBF6" fill-opacity="0.22"/>
<circle cx="498.798" cy="675.25" r="10.4024" transform="rotate(-180 498.798 675.25)" fill="#FFFBF6" fill-opacity="0.22"/>
<circle cx="258.058" cy="816.425" r="10.4024" transform="rotate(-180 258.058 816.425)" fill="#FFFBF6" fill-opacity="0.22"/>
<circle cx="420.037" cy="901.129" r="10.4024" transform="rotate(-180 420.037 901.129)" fill="#FFFBF6" fill-opacity="0.22"/>
<circle cx="477.993" cy="550.422" r="10.4024" transform="rotate(-180 477.993 550.422)" fill="#FFFBF6" fill-opacity="0.22"/>
<circle cx="268.46" cy="468.689" r="10.4024" transform="rotate(-180 268.46 468.689)" fill="#FFFBF6" fill-opacity="0.22"/>
<path d="M347.328 1188.34C325.366 976.127 613.788 894.364 648.655 689.874C613.788 894.364 380.502 976.127 402.464 1188.34C420.034 1358.11 632.297 1457.72 722.039 1478.31L638.514 1462.31C548.773 1441.73 364.897 1358.11 347.328 1188.34Z" fill="url(#paint0_linear_200_347)"/>
<path d="M212.267 1188.34C180.124 977.429 603.736 811.135 655.941 605.597C621.074 810.087 271.528 977.117 301.554 1188.34C330.242 1390.14 573.957 1523.14 663.699 1543.73C486.997 1512.51 247.977 1422.65 212.267 1188.34Z" fill="#59001E" fill-opacity="0.2"/>
<path d="M230.104 1188.34C197.961 977.429 603.736 811.135 655.942 605.597C621.075 810.087 255.214 977.117 285.241 1188.34C313.928 1390.14 532.18 1509.15 621.921 1529.73C532.18 1509.15 265.815 1422.65 230.104 1188.34Z" fill="url(#paint1_linear_200_347)"/>
<path d="M78.2151 391.282C119.619 618.017 300.806 630.697 408.741 616.995C444.604 612.442 524.732 554.311 528.023 505.599C530.528 468.538 478.318 451.672 457.456 448.195C414.013 440.954 379.721 471.13 317.924 473.44C230.859 476.695 208.076 418.923 236.148 377.832C263.461 337.853 365.76 359.4 432.247 377.832C498.733 396.263 482.192 360.834 468.716 349.34C453.503 336.364 432.605 307.747 319.579 315.043C206.552 322.339 191.066 193.751 264.001 110.078C102.578 176.275 134.907 280.757 219.043 331.681C232.495 339.823 203.591 329.639 162.739 374.982C107.43 436.373 145.192 472.529 224.959 507.571C278.181 530.952 354.304 510.325 393.21 503.371C425.205 497.652 444.894 501.019 444.894 512.574C444.894 524.13 420.495 537.861 384.714 543.018C260.361 560.942 122.469 475.403 78.2151 391.282Z" fill="#59001E" fill-opacity="0.2"/>
<path d="M275.222 101.252C202.288 184.925 209.412 312.326 322.438 305.03C435.464 297.734 467.663 323.416 482.876 336.393C496.353 347.887 556.482 428.346 439.963 397.999C373.197 380.61 316.43 384.068 297.283 406.538C283.609 422.585 314.508 435.683 345.267 434.533C407.064 432.223 425.019 410.631 480.103 419.812C558.846 432.935 620.325 491.826 620.325 591.752C620.325 640.576 588.836 709.731 494.789 773.549C404.758 834.641 33.1397 559.465 68.8217 334.139C83.4258 383.836 98.8656 421.086 132.722 448.697C117.602 427.66 130.59 391.635 142.583 376.382C159.244 355.192 180.752 340.784 197.613 332.202C113.477 281.278 85.2188 169.924 275.222 101.252ZM414.127 519.318C414.127 513.626 395.734 514.111 374.494 517.907C351.492 522.019 305.118 527.402 273.624 525.784C302.352 531.638 345.491 537.384 372.002 533.562C407.784 528.405 414.127 525.011 414.127 519.318Z" fill="#59001E" fill-opacity="0.2"/>
<path d="M381.757 302.729C286.297 302.729 287.272 245.879 319.504 213.648C229.885 238.89 255.133 317.999 350.532 321.412C389.803 322.817 429.423 330.492 444.584 343.53C465.126 361.197 475.679 382.507 409.193 364.075C342.707 345.643 279.524 355.569 252.601 373.771C225.678 391.972 196.907 471.004 319.504 466.853C400.512 464.111 415.542 438.147 470.763 441.644C545.087 446.35 543.69 540.597 540.398 589.31C535.066 668.221 461.011 729.95 288.794 809.186C136.696 879.165 53.6933 1046.07 62.4051 1212.84C71.1168 1379.61 284.583 1449.92 377.923 1525.84C284.583 1449.92 186.992 1379.61 178.28 1212.84C169.568 1046.07 256.769 939.101 399.733 851.968C632.863 709.883 614.207 632.861 617.498 584.148C620.79 535.435 614.599 440.194 481.021 417.294C426.484 407.945 400.768 428.846 347.11 428.846C303.149 428.846 292.569 413.325 310.745 401.037C328.921 388.749 378.86 385.05 436.527 401.037C465.159 408.975 490.397 416.314 508.344 406.523C518.644 400.903 521.63 368.767 486.761 339.514C471.442 326.663 441.4 302.729 381.757 302.729Z" fill="#59001E" fill-opacity="0.2"/>
<path d="M381.135 300.374C285.676 300.374 293.626 239.47 325.858 207.238C215.999 233.019 249.504 325.296 344.903 328.709C384.174 330.114 429.423 330.493 444.584 343.531C465.126 361.197 475.679 382.507 409.193 364.075C342.707 345.643 279.524 355.57 252.601 373.771C225.678 391.973 196.907 471.004 319.504 466.854C400.512 464.111 415.542 438.147 470.763 441.644C545.087 446.35 543.69 540.598 540.398 589.31C535.067 668.221 440.373 724.164 268.155 803.401C116.058 873.38 70.044 1046.07 78.7557 1212.84C88.6559 1402.36 271.467 1517.92 457.327 1565.03C327.996 1481.95 209.09 1379.61 200.378 1212.84C191.666 1046.07 256.769 939.101 399.733 851.969C632.863 709.884 633.642 629.782 636.933 581.069C640.225 532.357 614.723 438.933 481.144 416.033C426.608 406.684 404.19 422.325 350.532 422.325C306.57 422.325 302.817 410.497 319.504 401.438C336.192 392.378 376.921 386.709 434.588 402.696C463.22 410.634 498.68 422.554 516.627 412.762C526.927 407.143 527.337 368.28 492.468 339.028C477.15 326.176 440.779 300.374 381.135 300.374Z" fill="#59001E" fill-opacity="0.2"/>
<path d="M382.514 305.61C287.054 305.61 277.476 253.66 309.708 221.429C252.601 245.782 255.133 317.999 350.532 321.412C389.803 322.817 429.423 330.492 444.584 343.53C465.127 361.197 475.68 382.507 409.193 364.075C342.707 345.643 279.524 355.569 252.601 373.771C225.678 391.972 196.907 471.004 319.504 466.853C400.512 464.111 415.542 438.147 470.763 441.644C545.087 446.35 543.69 540.597 540.398 589.31C535.067 668.221 461.011 729.95 288.794 809.186C136.696 879.165 87.4093 1060.41 94.1725 1189.88C102.884 1356.65 230.355 1463.96 377.923 1525.84C284.583 1449.92 186.992 1379.61 178.28 1212.84C169.569 1046.07 242.908 926.337 387.228 841.471C592.436 720.801 601.92 621.96 604.635 581.767C606.916 548.01 592.38 441.349 481.863 422.403C427.327 413.054 389.915 438.196 336.257 438.196C292.296 438.196 272.357 416.687 299.28 398.486C326.203 380.284 375.941 378.186 442.427 396.618C508.913 415.05 523.947 385.443 486.793 343.53C473.529 328.567 432.568 305.61 382.514 305.61Z" fill="url(#paint2_linear_200_347)"/>
<path d="M83.426 404.552C124.83 631.288 300.808 630.696 408.743 616.994C444.606 612.441 524.734 554.31 528.025 505.598C530.529 468.537 478.32 451.671 457.458 448.194C414.015 440.953 396.107 449.275 334.31 451.585C247.246 454.84 258.015 406.857 267.188 393.429C287.773 363.298 351.827 365.224 418.313 383.656C484.8 402.088 482.194 360.833 468.718 349.339C453.504 336.363 428.784 316.775 315.757 324.071C202.731 331.367 170.469 210.888 243.403 127.215C117.554 209.118 188.81 342.02 286.974 336.029C385.139 330.037 390.169 334.747 407.557 344.221C423.111 352.695 399.635 346.776 380.214 344.221C311.81 335.22 231.891 328.94 194.181 370.797C138.871 432.188 199.91 514.981 286.974 511.726C348.771 509.416 389.57 490.441 429.093 490.441C448.364 490.441 457.458 504.129 457.458 511.726C457.458 533.7 423.501 544.881 387.638 549.434C279.703 563.136 127.68 488.674 83.426 404.552Z" fill="url(#paint3_linear_200_347)"/>
<path d="M364.564 311.501C269.303 317.65 214.607 249.149 294.752 178.2C175.11 205.265 212.391 338.138 307.652 331.989C376.605 327.538 411.828 332.166 427.041 345.142C440.517 356.637 427.041 357.789 384.8 348.936C317.273 334.784 241.57 337.722 211.281 375.495C172.911 423.346 222.892 486.999 292.339 491.119C345.903 494.297 401.036 463.735 456.121 468.963C491.414 472.312 499.04 493.943 496.779 527.409C493.488 576.121 356.329 679.038 170.338 543.835C-6.74779 415.104 1.08073 991.323 9.79244 1158.09C18.5042 1324.86 112.886 1483.52 206.226 1559.44C112.886 1483.52 51.9045 1334.18 43.1928 1167.41C34.4811 1000.64 145.516 868.856 350.864 792.94C556.211 717.023 562.251 601.394 565.543 552.681C568.834 503.969 551.932 442.239 482.813 430.39C428.277 421.041 377.34 452.263 323.776 449.085C263.104 445.485 256.068 404.09 279.576 387.383C315.692 361.715 378.261 374.01 444.747 392.442C518.44 412.872 496.655 363.787 484.712 350.707C474.088 339.072 433.517 307.05 364.564 311.501Z" fill="#920002" fill-opacity="0.2"/>
<path d="M285.751 183.596C205.606 254.545 267.414 321.85 362.676 315.701C431.629 311.25 463.389 337.967 478.603 350.943C492.079 362.437 511.447 409.177 444.961 390.745C378.474 372.313 303.649 350.495 268.748 384.054C238.648 412.996 252.995 453.763 322.442 457.884C376.006 461.062 424.066 423.477 478.603 432.826C547.722 444.675 561.477 503.969 558.185 552.682C554.894 601.395 550.961 711.913 345.614 787.83C140.266 863.746 34.4811 1000.64 43.1928 1167.41C51.1995 1320.68 103.359 1459.24 184.211 1539.59C191.689 1546.96 199.05 1553.6 206.226 1559.44C198.673 1553.3 191.331 1546.67 184.211 1539.59C94.4303 1451.17 -12.2555 1258.55 -20.2974 1104.61C-29.0091 937.841 -8.68227 576.25 86.5683 482.568C221.218 658.254 449.745 601.331 485.142 567.704C524.574 530.243 526.102 463.111 471.017 457.884C415.932 452.656 352.844 485.746 299.28 482.568C229.833 478.448 182.849 422.775 221.218 374.925C251.508 337.151 332.631 340.47 399.118 358.902C465.604 377.334 449.982 356.838 436.505 345.344C421.292 332.367 388.365 323.636 319.412 328.087C224.151 334.237 197.799 218.39 285.751 183.596Z" fill="url(#paint4_linear_200_347)"/>
<path d="M375.053 317.373C414.538 313.958 448.687 325.91 468.536 348.534C444.845 333.594 414.965 317.373 375.053 317.373Z" fill="url(#paint5_linear_200_347)"/>
<path d="M395.815 313.487C424.464 311.009 449.242 319.682 463.645 336.097C446.455 325.257 424.774 313.487 395.815 313.487Z" fill="url(#paint6_linear_200_347)"/>
<path d="M432.306 437.16C475.68 420.662 525.707 433.168 549.922 487.186C530.231 464.834 504.419 423.855 432.306 437.16Z" fill="url(#paint7_linear_200_347)"/>
<path d="M272.765 739.794C529.955 660.036 526.664 562.526 529.956 513.813C517.701 588.318 443.232 651.993 347.328 647.949C229.486 642.979 110.017 591.113 50.3868 505.217C-16.9599 575.477 -108.833 758.388 -100.233 916.411C-91.6327 1074.43 -71.8019 1145.34 -62.9615 1161.03C-71.6732 994.266 63.6575 804.641 272.765 739.794Z" fill="url(#paint8_linear_200_347)"/>
<path d="M271.862 684.628C179.316 680.605 83.1798 614.721 7.53427 537.466C-19.0318 574.853 -86.27 741.872 -32.3303 837.529C74.7001 737.741 162.417 703.137 271.862 684.628Z" fill="url(#paint9_linear_200_347)"/>
<rect y="410.39" width="800" height="470" fill="url(#paint10_linear_200_347)"/>
<rect x="0.00012207" y="880.39" width="800" height="1526.46" fill="#BD0000" fill-opacity="0.63"/>
<path d="M382.859 336.572C380.472 338.561 379.278 341.546 381.865 344.331C384.451 347.115 385.778 334.085 382.859 336.572Z" fill="white"/>
</g>
<defs>
<linearGradient id="paint0_linear_200_347" x1="514.356" y1="865.677" x2="514.356" y2="1462.31" gradientUnits="userSpaceOnUse">
<stop stop-color="#FFDB87"/>
<stop offset="0.177885" stop-color="#F5BD3C"/>
<stop offset="1" stop-color="#EF8F1C"/>
</linearGradient>
<linearGradient id="paint1_linear_200_347" x1="397.133" y1="865.677" x2="397.133" y2="1462.31" gradientUnits="userSpaceOnUse">
<stop stop-color="#FFDB87"/>
<stop offset="0.177885" stop-color="#F5BD3C"/>
<stop offset="1" stop-color="#EF8F1C"/>
</linearGradient>
<linearGradient id="paint2_linear_200_347" x1="316.444" y1="767.67" x2="316.444" y2="1433.31" gradientUnits="userSpaceOnUse">
<stop offset="0.115385" stop-color="#FDD374"/>
<stop offset="1" stop-color="#F0901D"/>
</linearGradient>
<linearGradient id="paint3_linear_200_347" x1="312.947" y1="127.215" x2="312.947" y2="586.321" gradientUnits="userSpaceOnUse">
<stop stop-color="#F7B637"/>
<stop offset="1" stop-color="#FF4D00"/>
</linearGradient>
<linearGradient id="paint4_linear_200_347" x1="264.9" y1="496.731" x2="264.9" y2="1559.44" gradientUnits="userSpaceOnUse">
<stop stop-color="#FFDB87"/>
<stop offset="0.177885" stop-color="#F5BD3C"/>
<stop offset="1" stop-color="#EF8F1C"/>
</linearGradient>
<linearGradient id="paint5_linear_200_347" x1="383.164" y1="316.797" x2="468.536" y2="347.254" gradientUnits="userSpaceOnUse">
<stop stop-color="white" stop-opacity="0"/>
<stop offset="0.495192" stop-color="white"/>
<stop offset="1" stop-color="white" stop-opacity="0"/>
</linearGradient>
<linearGradient id="paint6_linear_200_347" x1="401.7" y1="313.069" x2="463.645" y2="335.168" gradientUnits="userSpaceOnUse">
<stop stop-color="white" stop-opacity="0"/>
<stop offset="0.495192" stop-color="white"/>
<stop offset="1" stop-color="white" stop-opacity="0"/>
</linearGradient>
<linearGradient id="paint7_linear_200_347" x1="442.093" y1="421.161" x2="565.696" y2="465.255" gradientUnits="userSpaceOnUse">
<stop stop-color="white" stop-opacity="0"/>
<stop offset="0.495192" stop-color="white"/>
<stop offset="1" stop-color="white" stop-opacity="0"/>
</linearGradient>
<linearGradient id="paint8_linear_200_347" x1="529.955" y1="584.509" x2="118.796" y2="790.1" gradientUnits="userSpaceOnUse">
<stop stop-color="#FFEFCA"/>
<stop offset="1" stop-color="#F0901D"/>
</linearGradient>
<linearGradient id="paint9_linear_200_347" x1="271.862" y1="582.477" x2="75.4587" y2="695.3" gradientUnits="userSpaceOnUse">
<stop stop-color="#FFEFCA"/>
<stop offset="1" stop-color="#F0901D"/>
</linearGradient>
<linearGradient id="paint10_linear_200_347" x1="400" y1="880.39" x2="400" y2="410.39" gradientUnits="userSpaceOnUse">
<stop stop-color="#BD0000" stop-opacity="0.63"/>
<stop offset="1" stop-color="#F19423" stop-opacity="0"/>
</linearGradient>
<clipPath id="clip0_200_347">
<rect width="800" height="2367" fill="white"/>
</clipPath>
</defs>
</svg>
